<?xml version="1.0" encoding="UTF-8" standalone="no"?>
<svg
   width="472"
   zoomAndPan="magnify"
   viewBox="0 0 354 249.74999"
   height="333"
   preserveAspectRatio="xMidYMid"
   version="1.0"
   id="svg137"
   xmlns="http://www.w3.org/2000/svg"
   xmlns:svg="http://www.w3.org/2000/svg">
  <defs
     id="defs47">
    <clipPath
       clipPathUnits="userSpaceOnUse"
       id="clipPath137">
      <path
         d="M 90.269534,118.68359 H 266.51953 v 117.75 H 90.269534 Z m 0,0"
         clip-rule="nonzero"
         id="path137"
         style="stroke-width:0.999997" />
    </clipPath>
    <clipPath
       clipPathUnits="userSpaceOnUse"
       id="clipPath166">
      <path
         d="m 249.8125,162.41016 h 10.08594 v 51.66796 H 249.8125 Z m 0,0"
         clip-rule="nonzero"
         id="path166"
         style="stroke-width:0.999997" />
    </clipPath>
  </defs>
  <g
     id="g202"
     transform="matrix(1.8424879,0,0,1.8424879,-152.68473,-202.06979)"
     style="display:inline">
    <path
       id="path49"
       clip-path="url(#clipPath137)"
       d="m 152.49609,118.69189 -5.43017,5.98828 -56.79639,60.94483 5.352539,4.98779 h 11.588381 v -6.53027 l 46.03564,-49.40332 5.70264,5.17236 c 2.70338,-2.66284 5.75852,-5.02969 9.13476,-7.02392 l -10.00927,-9.07764 -5.43018,-5.05811 -0.0703,0.0733 z m 58.77539,11.43311 c 4.67869,2.03199 9.03727,4.81469 12.87744,8.27051 V 130.125 Z m -17.64697,5.58545 v 1.80761 c 5.31016,0.19359 10.49164,1.55829 15.17432,3.94629 h 3.66796 c -5.63851,-3.51427 -12.14455,-5.52163 -18.84228,-5.7539 z m -21.58594,5.84472 c -2.19352,1.37808 -4.20873,2.95653 -6.03076,4.70069 l 1.34033,1.21582 c 1.64537,-1.56403 3.45416,-2.98694 5.41553,-4.24072 z m 40.76953,0.12452 v 2.16503 c 4.10362,2.80772 7.66731,6.48585 10.37989,10.91163 l 1.67578,-0.71631 c -2.1e-4,-3.5e-4 2.1e-4,-0.001 0,-0.001 -3.08469,-5.11375 -7.24592,-9.28987 -12.05567,-12.35888 z m -19.18359,3.09228 v 6.89941 h -4.76514 l -0.41455,-0.37646 0.25342,0.58594 -10.26123,4.44433 -2.74512,-6.33691 c -1.04573,0.73021 -2.03241,1.52145 -2.95752,2.36865 l 11.6294,10.54981 v 0.10547 h 0.11718 l 0.0425,0.0381 0.0352,-0.0381 h 20.40674 v -15.36036 c -3.52575,-1.70768 -7.38603,-2.69969 -11.34082,-2.87988 z m 49.61719,6.89941 2.41113,5.64112 -7.63916,3.26513 c 0.23411,0.80917 0.44498,1.62135 0.63428,2.43458 h 27.70312 v -11.34083 z m -30.4336,1.54981 v 5.9707 l 3.62403,-1.54834 c -1.07186,-1.61091 -2.28805,-3.08821 -3.62403,-4.42236 z"
       style="fill:#000000;fill-opacity:1" />
    <path
       fill="#d6ecfa"
       d="m 249.8125,162.41016 h 10.08594 v 51.67968 H 249.8125 Z m 0,0"
       fill-opacity="1"
       fill-rule="nonzero"
       id="path53"
       clip-path="url(#clipPath166)"
       style="fill:#000000;fill-opacity:1" />
    <path
       id="path63"
       d="m 192.0249,130.93945 c -3.84005,0.0257 -7.72134,0.57154 -11.54297,1.67725 l 3.43799,7.93213 c 14.35527,-3.65399 29.54188,2.42089 37.40478,15.00293 l 7.94532,-3.39551 c -7.8365,-13.46351 -22.23153,-21.31731 -37.24512,-21.2168 z m -21.79102,6.14795 c -16.61869,9.98628 -24.46254,30.06213 -18.96826,48.69141 l 7.93653,-3.39551 c -3.74424,-14.25028 2.13284,-29.36474 14.47119,-37.35645 z m 63.36621,25.37695 -7.96142,3.4043 c 3.33939,14.05173 -2.58329,28.79859 -14.75537,36.62988 l 3.43799,7.93799 c 16.44941,-9.83021 24.34277,-29.5298 19.2788,-47.97217 z m -69.84374,30.1333 -7.96875,3.40723 v 10e-4 c 9.96602,16.40379 29.79754,24.17306 48.27392,18.87597 l -3.43799,-7.93652 c -14.06407,3.5342 -28.90747,-2.25785 -36.86718,-14.34815 z"
       style="fill:#e22626;fill-opacity:1" />
    <path
       fill="#e22626"
       d="M 198.28906,197.00781 205.23047,194 l 11.73047,27.08203 -6.9375,3.00781 z m 0,0"
       fill-opacity="1"
       fill-rule="nonzero"
       id="path72" />
    <path
       fill="#e22626"
       d="m 167.61328,126.20313 6.9375,-3.00391 11.73438,27.08203 -6.9375,3.00391 z m 0,0"
       fill-opacity="1"
       fill-rule="nonzero"
       id="path90" />
    <path
       fill="#e22626"
       d="m 215.83984,168.06641 -3.00781,-6.94141 27.08203,-11.73438 3.00781,6.94141 z m 0,0"
       fill-opacity="1"
       fill-rule="nonzero"
       id="path102" />
    <path
       fill="#e22626"
       d="m 143.84375,198.85156 -3.00781,-6.9375 27.08203,-11.73437 3.00781,6.9414 z m 0,0"
       fill-opacity="1"
       fill-rule="nonzero"
       id="path108" />
    <path
       d="m 189.56207,233.93829 c -1.91796,0 -3.42968,-0.60156 -4.53125,-1.8125 -1.10546,-1.21875 -1.65625,-2.85156 -1.65625,-4.90625 v -8.5 h 4.29688 v 8.07813 c 0,1.09375 0.25781,1.94531 0.78125,2.54687 0.51953,0.59375 1.22656,0.89063 2.125,0.89063 0.97656,0 1.75781,-0.33594 2.34375,-1.01563 0.58203,-0.67578 0.875,-1.59765 0.875,-2.76562 v -7.73438 h 4.29687 v 14.82813 h -3.1875 l -0.45312,-1.67188 c -0.58594,0.69922 -1.30469,1.21875 -2.15625,1.5625 -0.84375,0.33204 -1.75781,0.5 -2.73438,0.5 z m 0,0"
       id="path116"
       style="fill:#000000;fill-opacity:1" />
    <path
       d="m 203.87778,233.54767 v -14.82813 h 3.20312 l 0.45313,1.65625 c 0.59375,-0.6875 1.3164,-1.20312 2.17187,-1.54687 0.86328,-0.34375 1.78516,-0.51563 2.76563,-0.51563 1.9375,0 3.45703,0.60547 4.5625,1.8125 1.10156,1.21094 1.65625,2.83985 1.65625,4.89063 v 8.53125 h -4.29688 v -8.07813 c 0,-1.09375 -0.26172,-1.9414 -0.78125,-2.54687 -0.51172,-0.61328 -1.23047,-0.92188 -2.15625,-0.92188 -0.98047,0 -1.77344,0.33985 -2.375,1.01563 -0.60547,0.67969 -0.90625,1.60156 -0.90625,2.76562 v 7.76563 z m 0,0"
       id="path119"
       style="fill:#000000;fill-opacity:1" />
    <path
       d="m 230.91703,233.54767 c -1.88671,0 -3.33593,-0.48438 -4.34375,-1.45313 -1,-0.96875 -1.5,-2.35937 -1.5,-4.17187 v -5.70313 h -2.89062 v -3.5 h 1.32812 c 0.8125,0 1.36329,-0.1289 1.65625,-0.39062 0.28907,-0.26953 0.49219,-0.78125 0.60938,-1.53125 l 0.25,-1.92188 h 3.32812 v 3.84375 h 4.07813 v 3.5 h -4.07813 v 5.0625 c 0,1.6875 0.82813,2.53125 2.48438,2.53125 h 1.78125 v 3.73438 z m 0,0"
       id="path122"
       style="fill:#000000;fill-opacity:1" />
    <path
       d="m 244.89798,233.93829 c -1.58594,0 -2.98438,-0.32812 -4.20313,-0.98437 -1.21093,-0.65625 -2.15234,-1.57031 -2.82812,-2.75 -0.67969,-1.17578 -1.01563,-2.53906 -1.01563,-4.09375 0,-1.53906 0.33594,-2.89453 1.01563,-4.0625 0.6875,-1.16406 1.64062,-2.07813 2.85937,-2.73438 1.21875,-0.66406 2.625,-1 4.21875,-1 1.69532,0 3.16016,0.38282 4.39063,1.14063 1.23828,0.75 2.17969,1.80469 2.82812,3.15625 0.65625,1.35547 0.9375,2.9375 0.84375,4.75 h -11.89062 c 0.19531,1.02344 0.64453,1.80469 1.34375,2.34375 0.69531,0.53125 1.53516,0.79687 2.51562,0.79687 0.71875,0 1.375,-0.13281 1.96875,-0.40625 0.59375,-0.28125 1.06641,-0.66406 1.42188,-1.15625 h 4.35937 c -0.64843,1.5625 -1.65625,2.78907 -3.03125,3.67188 -1.375,0.88672 -2.97656,1.32812 -4.79687,1.32812 z m -3.76563,-9.29687 h 7.71875 c -0.25,-0.89453 -0.71093,-1.60156 -1.375,-2.125 -0.66796,-0.51953 -1.5,-0.78125 -2.5,-0.78125 -0.9375,0 -1.75,0.26172 -2.4375,0.78125 -0.6875,0.52344 -1.15625,1.23047 -1.40625,2.125 z m 0,0"
       id="path125"
       style="fill:#000000;fill-opacity:1" />
    <path
       d="m 257.70893,233.54767 v -14.82813 h 3.20312 l 0.5625,1.96875 c 0.48828,-0.69531 1.08594,-1.19531 1.79688,-1.5 0.71875,-0.3125 1.625,-0.46875 2.71875,-0.46875 h 1.60937 v 3.89063 h -1.64062 c -1.21875,0 -2.1836,0.33594 -2.89063,1 -0.71094,0.65625 -1.0625,1.78906 -1.0625,3.39062 v 6.54688 z m 0,0"
       id="path128"
       style="fill:#000000;fill-opacity:1" />
    <path
       d="m 125.97231,215.18739 c 4.86328,1.57422 7.29687,4.76563 7.29687,9.57813 0,3.625 -1.51562,6.4375 -4.54687,8.4375 -3.02344,2 -7.34375,3 -12.96875,3 H 96.847307 v -40.5625 h 21.093753 c 4.21875,0 7.46093,0.99219 9.73437,2.96875 2.26953,1.96875 3.40625,4.79297 3.40625,8.46875 0,3.84375 -1.70312,6.54687 -5.10937,8.10937 z m -16.14063,-4.21875 h 6.25 c 2,0 3,-0.80468 3,-2.42187 0,-1.57031 -1,-2.49219 -3,-2.76563 h -6.25 z m 7.0625,15.09375 c 2.375,0 3.5625,-0.94531 3.5625,-2.84375 0,-1.94531 -1.1875,-2.92187 -3.5625,-2.92187 h -7.0625 v 5.76562 z m 0,0"
       id="path131"
       style="fill:#000000;fill-opacity:1" />
    <path
       d="m 176.25176,195.64052 v 40.5625 h -13.23438 v -14.59375 h -8.92187 v 14.59375 h -13.14063 v -40.5625 h 13.14063 v 14.60937 h 8.92187 v -14.60937 z m 0,0"
       id="path134"
       style="fill:#000000;fill-opacity:1" />
  </g>
  <g
     id="g215"
     style="display:none">
    <path
       id="path202"
       clip-path="url(#clipPath137)"
       d="m 152.49609,118.69189 -5.43017,5.98828 -56.79639,60.94483 5.352539,4.98779 h 11.588381 v -6.53027 l 46.03564,-49.40332 5.70264,5.17236 c 2.70338,-2.66284 5.75852,-5.02969 9.13476,-7.02392 l -10.00927,-9.07764 -5.43018,-5.05811 -0.0703,0.0733 z m 58.77539,11.43311 c 4.67869,2.03199 9.03727,4.81469 12.87744,8.27051 V 130.125 Z m -17.64697,5.58545 v 1.80761 c 5.31016,0.19359 10.49164,1.55829 15.17432,3.94629 h 3.66796 c -5.63851,-3.51427 -12.14455,-5.52163 -18.84228,-5.7539 z m -21.58594,5.84472 c -2.19352,1.37808 -4.20873,2.95653 -6.03076,4.70069 l 1.34033,1.21582 c 1.64537,-1.56403 3.45416,-2.98694 5.41553,-4.24072 z m 40.76953,0.12452 v 2.16503 c 4.10362,2.80772 7.66731,6.48585 10.37989,10.91163 l 1.67578,-0.71631 c -2.1e-4,-3.5e-4 2.1e-4,-0.001 0,-0.001 -3.08469,-5.11375 -7.24592,-9.28987 -12.05567,-12.35888 z m -19.18359,3.09228 v 6.89941 h -4.76514 l -0.41455,-0.37646 0.25342,0.58594 -10.26123,4.44433 -2.74512,-6.33691 c -1.04573,0.73021 -2.03241,1.52145 -2.95752,2.36865 l 11.6294,10.54981 v 0.10547 h 0.11718 l 0.0425,0.0381 0.0352,-0.0381 h 20.40674 v -15.36036 c -3.52575,-1.70768 -7.38603,-2.69969 -11.34082,-2.87988 z m 49.61719,6.89941 2.41113,5.64112 -7.63916,3.26513 c 0.23411,0.80917 0.44498,1.62135 0.63428,2.43458 h 27.70312 v -11.34083 z m -30.4336,1.54981 v 5.9707 l 3.62403,-1.54834 c -1.07186,-1.61091 -2.28805,-3.08821 -3.62403,-4.42236 z"
       style="fill:#ffffff;fill-opacity:1"
       transform="matrix(1.8424879,0,0,1.8424879,-152.68473,-202.06979)" />
    <path
       fill="#d6ecfa"
       d="m 249.8125,162.41016 h 10.08594 v 51.67968 H 249.8125 Z m 0,0"
       fill-opacity="1"
       fill-rule="nonzero"
       id="path203"
       clip-path="url(#clipPath166)"
       style="fill:#ffffff;fill-opacity:1"
       transform="matrix(1.8424879,0,0,1.8424879,-152.68473,-202.06979)" />
    <path
       id="path204"
       d="m 201.11882,39.184562 c -7.07524,0.04735 -14.22647,1.053056 -21.26778,3.090313 l 6.33446,14.614854 c 26.44941,-6.732433 54.43055,4.46046 68.91785,27.642717 L 269.74251,78.27626 C 255.30385,53.469905 228.78118,38.999374 201.11882,39.184562 Z M 160.96913,50.512086 C 130.3494,68.911686 115.8972,105.9012 126.02034,140.22542 l 14.62297,-6.25619 c -6.89872,-26.25597 3.92973,-54.104175 26.66299,-68.828804 z m 116.75148,46.756723 -14.66882,6.272381 c 6.15278,25.89014 -4.75968,53.06105 -27.18659,67.49011 l 6.33445,14.62565 c 30.30784,-18.11204 44.85126,-54.4083 35.52096,-88.388141 z m -128.68625,55.520241 -14.68232,6.27778 v 0.002 c 18.36227,30.22379 54.9016,44.53857 88.94411,34.77875 l -6.33445,-14.62294 c -25.91288,6.51172 -53.26167,-4.16006 -67.92734,-26.4363 z"
       style="fill:#e22626;fill-opacity:1;stroke-width:1.84249" />
    <path
       fill="#e22626"
       d="m 212.66046,160.91472 12.78947,-5.54186 21.61325,49.89832 -12.78226,5.54185 z m 0,0"
       fill-opacity="1"
       fill-rule="nonzero"
       id="path205"
       style="stroke-width:1.84249" />
    <path
       fill="#e22626"
       d="m 156.14071,30.45795 12.78226,-5.534668 21.62045,49.898313 -12.78226,5.534668 z m 0,0"
       fill-opacity="1"
       fill-rule="nonzero"
       id="path206"
       style="stroke-width:1.84249" />
    <path
       fill="#e22626"
       d="m 244.99756,107.59054 -5.54185,-12.789467 49.89831,-21.620453 5.54186,12.789464 z m 0,0"
       fill-opacity="1"
       fill-rule="nonzero"
       id="path207"
       style="stroke-width:1.84249" />
    <path
       fill="#e22626"
       d="m 112.34564,164.3118 -5.54185,-12.78226 49.89831,-21.62043 5.54185,12.78944 z m 0,0"
       fill-opacity="1"
       fill-rule="nonzero"
       id="path208"
       style="stroke-width:1.84249" />
    <path
       d="m 196.58109,228.95868 c -3.53382,0 -6.31914,-1.10837 -8.34877,-3.33951 -2.0368,-2.24553 -3.05162,-5.25397 -3.05162,-9.03971 v -15.66114 h 7.91695 v 14.88385 c 0,2.01522 0.47501,3.58421 1.43944,4.69258 0.95723,1.09398 2.25992,1.64097 3.91529,1.64097 1.7993,0 3.23874,-0.61896 4.31833,-1.87128 1.07238,-1.24512 1.61217,-2.94365 1.61217,-5.09562 v -14.2505 h 7.91694 v 27.32065 h -5.87294 l -0.83486,-3.08042 c -1.07959,1.2883 -2.40388,2.24553 -3.97287,2.87888 -1.5546,0.61178 -3.23874,0.92125 -5.03806,0.92125 z m 0,0"
       id="path209"
       style="fill:#ffffff;fill-opacity:1;stroke-width:1.84249" />
    <path
       d="m 222.95761,228.23897 v -27.32065 h 5.90171 l 0.83489,3.05162 c 1.09398,-1.26671 2.42545,-2.21674 4.00164,-2.85009 1.59059,-0.63336 3.28914,-0.95004 5.09564,-0.95004 3.56982,0 6.36954,1.11557 8.40635,3.3395 2.02962,2.23115 3.05162,5.23239 3.05162,9.01093 v 15.71873 h -7.91694 v -14.88386 c 0,-2.01522 -0.48222,-3.57701 -1.43945,-4.69258 -0.94284,-1.12996 -2.26712,-1.69855 -3.97286,-1.69855 -1.80651,0 -3.26754,0.62617 -4.37591,1.87129 -1.11557,1.25232 -1.66976,2.95085 -1.66976,5.09562 v 14.30808 z m 0,0"
       id="path210"
       style="fill:#ffffff;fill-opacity:1;stroke-width:1.84249" />
    <path
       d="m 272.7771,228.23897 c -3.47624,0 -6.14641,-0.89247 -8.0033,-2.67738 -1.84249,-1.78491 -2.76373,-4.34711 -2.76373,-7.68662 v -10.50795 h -5.32594 v -6.4487 h 2.44705 c 1.49702,0 2.51184,-0.2375 3.05162,-0.71972 0.53261,-0.4966 0.90685,-1.43944 1.12277,-2.82131 l 0.46063,-3.54104 h 6.13202 v 7.08207 h 7.5139 v 6.4487 h -7.5139 v 9.3276 c 0,3.1092 1.52582,4.6638 4.57744,4.6638 h 3.28193 v 6.88055 z m 0,0"
       id="path211"
       style="fill:#ffffff;fill-opacity:1;stroke-width:1.84249" />
    <path
       d="m 298.53683,228.95868 c -2.92207,0 -5.49868,-0.60456 -7.74421,-1.81369 -2.23113,-1.20913 -3.96566,-2.89328 -5.21078,-5.06684 -1.25232,-2.16636 -1.87128,-4.67819 -1.87128,-7.54269 0,-2.8357 0.61896,-5.33313 1.87128,-7.4851 1.26671,-2.14477 3.02282,-3.82893 5.26836,-5.03807 2.24553,-1.22352 4.83653,-1.84248 7.77299,-1.84248 3.12361,0 5.82256,0.70534 8.08968,2.10159 2.28152,1.38187 4.01606,3.32512 5.21078,5.81535 1.20913,2.49744 1.72733,5.41231 1.5546,8.75182 h -21.90832 c 0.35985,1.88568 1.18754,3.32512 2.47584,4.31833 1.2811,0.97882 2.82851,1.46823 4.635,1.46823 1.32429,0 2.53342,-0.2447 3.6274,-0.74851 1.09398,-0.5182 1.96485,-1.22353 2.61979,-2.13038 h 8.03209 c -1.19472,2.87889 -3.05162,5.13883 -5.58504,6.76539 -2.53342,1.63377 -5.48428,2.44705 -8.83818,2.44705 z m -6.93812,-17.12937 h 14.2217 c -0.46062,-1.64816 -1.30988,-2.95086 -2.53342,-3.91529 -1.23071,-0.95723 -2.76373,-1.43944 -4.60622,-1.43944 -1.72733,0 -3.22435,0.48221 -4.49106,1.43944 -1.26671,0.96443 -2.13038,2.26713 -2.591,3.91529 z m 0,0"
       id="path212"
       style="fill:#ffffff;fill-opacity:1;stroke-width:1.84249" />
    <path
       d="m 322.14086,228.23897 v -27.32065 h 5.90171 l 1.03639,3.62739 c 0.89965,-1.2811 2.00084,-2.20234 3.31073,-2.76373 1.32429,-0.57578 2.99405,-0.86366 5.00927,-0.86366 h 2.96524 v 7.16843 h -3.02282 c -2.24553,0 -4.02326,0.61897 -5.32595,1.84249 -1.3099,1.20914 -1.95764,3.29632 -1.95764,6.24718 v 12.06255 z m 0,0"
       id="path213"
       style="fill:#ffffff;fill-opacity:1;stroke-width:1.84249" />
    <path
       d="m 79.417727,194.41037 c 8.960534,2.90048 13.444395,8.78062 13.444395,17.64759 0,6.67902 -2.792512,11.86102 -8.377553,15.54599 -5.570652,3.68498 -13.530771,5.52747 -23.894765,5.52747 H 25.755261 V 158.3955 h 38.864985 c 7.772996,0 13.746673,1.8281 17.935459,5.46989 4.181581,3.62739 6.275974,8.83099 6.275974,15.60357 0,7.08206 -3.137978,12.06252 -9.413952,14.94141 z m -29.738916,-7.77299 h 11.51555 c 3.684976,0 5.527464,-1.48262 5.527464,-4.46227 0,-2.89328 -1.842488,-4.59183 -5.527464,-5.09564 h -11.51555 z m 13.012571,27.81005 c 4.375909,0 6.563863,-1.74172 6.563863,-5.23958 0,-3.58421 -2.187954,-5.38351 -6.563863,-5.38351 H 49.678811 v 10.62309 z m 0,0"
       id="path214"
       style="fill:#ffffff;fill-opacity:1;stroke-width:1.84249" />
    <path
       d="m 172.05701,158.3955 v 74.73592 h -24.38419 v -26.88881 h -16.43844 v 26.88881 H 107.02293 V 158.3955 h 24.21145 v 26.91759 h 16.43844 V 158.3955 Z m 0,0"
       id="path215"
       style="fill:#ffffff;fill-opacity:1;stroke-width:1.84249" />
  </g>
</svg>
