<svg xmlns="http://www.w3.org/2000/svg" xmlns:xlink="http://www.w3.org/1999/xlink" width="500" zoomAndPan="magnify" viewBox="0 0 375 374.999991" height="500" preserveAspectRatio="xMidYMid meet" version="1.0"><defs><g/><clipPath id="f4e44edd1b"><path d="M 90.269531 118.683594 L 266.519531 118.683594 L 266.519531 236.433594 L 90.269531 236.433594 Z M 90.269531 118.683594 " clip-rule="nonzero"/></clipPath><clipPath id="c322fd5c46"><path d="M 90.269531 214.078125 L 112.34375 214.078125 L 112.34375 281.945312 L 90.269531 281.945312 Z M 90.269531 214.078125 " clip-rule="nonzero"/></clipPath><clipPath id="dfb81b331b"><path d="M 0.269531 0.078125 L 22.34375 0.078125 L 22.34375 67.945312 L 0.269531 67.945312 Z M 0.269531 0.078125 " clip-rule="nonzero"/></clipPath><clipPath id="bec8bb46c4"><rect x="0" width="23" y="0" height="68"/></clipPath><clipPath id="308603edb2"><path d="M 250.242188 162.410156 L 261.613281 162.410156 L 261.613281 214.078125 L 250.242188 214.078125 Z M 250.242188 162.410156 " clip-rule="nonzero"/></clipPath><clipPath id="db459762c5"><path d="M 0.242188 0.410156 L 11.613281 0.410156 L 11.613281 52.078125 L 0.242188 52.078125 Z M 0.242188 0.410156 " clip-rule="nonzero"/></clipPath><clipPath id="adeba01023"><rect x="0" width="12" y="0" height="53"/></clipPath><clipPath id="3a90746b47"><path d="M 15 15 L 111 15 L 111 111 L 15 111 Z M 15 15 " clip-rule="nonzero"/></clipPath><clipPath id="de745e8c33"><path d="M 0.332031 38.246094 L 87.664062 0.410156 L 125.5 87.738281 L 38.167969 125.574219 Z M 0.332031 38.246094 " clip-rule="nonzero"/></clipPath><clipPath id="828a4b6d6a"><path d="M 0.332031 38.246094 L 87.664062 0.410156 L 125.5 87.738281 L 38.167969 125.574219 Z M 0.332031 38.246094 " clip-rule="nonzero"/></clipPath><clipPath id="4bdd967a2c"><path d="M 26 26 L 100 26 L 100 100 L 26 100 Z M 26 26 " clip-rule="nonzero"/></clipPath><clipPath id="52c4b108cd"><path d="M 15.210938 44.128906 L 82.039062 15.175781 L 110.992188 82.003906 L 44.164062 110.953125 Z M 15.210938 44.128906 " clip-rule="nonzero"/></clipPath><clipPath id="e793ed8638"><path d="M 15.210938 44.128906 L 82.039062 15.175781 L 110.992188 82.003906 L 44.164062 110.953125 Z M 15.210938 44.128906 " clip-rule="nonzero"/></clipPath><clipPath id="357907ecf8"><path d="M 20 20 L 106 20 L 106 106 L 20 106 Z M 20 20 " clip-rule="nonzero"/></clipPath><clipPath id="adfd364559"><path d="M 6.59375 40.722656 L 84.808594 6.832031 L 118.699219 85.050781 L 40.480469 118.9375 Z M 6.59375 40.722656 " clip-rule="nonzero"/></clipPath><clipPath id="36524a8e5e"><path d="M 6.59375 40.722656 L 84.808594 6.832031 L 118.699219 85.050781 L 40.480469 118.9375 Z M 6.59375 40.722656 " clip-rule="nonzero"/></clipPath><clipPath id="33d21ee6a0"><path d="M 66 80 L 90 80 L 90 116 L 66 116 Z M 66 80 " clip-rule="nonzero"/></clipPath><clipPath id="95ae586ae5"><path d="M 66.335938 85.046875 L 76.59375 80.601562 L 89.996094 111.53125 L 79.734375 115.976562 Z M 66.335938 85.046875 " clip-rule="nonzero"/></clipPath><clipPath id="370fd7e222"><path d="M 0.238281 0.601562 L 24 0.601562 L 24 36 L 0.238281 36 Z M 0.238281 0.601562 " clip-rule="nonzero"/></clipPath><clipPath id="e33920077f"><path d="M 0.335938 5.046875 L 10.59375 0.601562 L 23.996094 31.53125 L 13.734375 35.976562 Z M 0.335938 5.046875 " clip-rule="nonzero"/></clipPath><clipPath id="08ccb70d5d"><rect x="0" width="24" y="0" height="36"/></clipPath><clipPath id="4db0bdf0d7"><path d="M 68 83 L 88 83 L 88 114 L 68 114 Z M 68 83 " clip-rule="nonzero"/></clipPath><clipPath id="3889b63632"><path d="M 68.824219 86.242188 L 75.765625 83.238281 L 87.503906 110.332031 L 80.5625 113.339844 Z M 68.824219 86.242188 " clip-rule="nonzero"/></clipPath><clipPath id="6c3bd30473"><path d="M 0.640625 0 L 19.601562 0 L 19.601562 30.480469 L 0.640625 30.480469 Z M 0.640625 0 " clip-rule="nonzero"/></clipPath><clipPath id="8b95c8a0eb"><path d="M 0.824219 3.242188 L 7.765625 0.238281 L 19.503906 27.332031 L 12.5625 30.339844 Z M 0.824219 3.242188 " clip-rule="nonzero"/></clipPath><clipPath id="a802359557"><rect x="0" width="20" y="0" height="31"/></clipPath><clipPath id="ee085b8471"><path d="M 35 10 L 60 10 L 60 46 L 35 46 Z M 35 10 " clip-rule="nonzero"/></clipPath><clipPath id="6f8486ea38"><path d="M 35.660156 14.53125 L 45.917969 10.085938 L 59.320312 41.015625 L 49.0625 45.460938 Z M 35.660156 14.53125 " clip-rule="nonzero"/></clipPath><clipPath id="a3801c05b1"><path d="M 0.519531 0.0390625 L 24.519531 0.0390625 L 24.519531 35.558594 L 0.519531 35.558594 Z M 0.519531 0.0390625 " clip-rule="nonzero"/></clipPath><clipPath id="e2fc4b0152"><path d="M 0.660156 4.53125 L 10.917969 0.0859375 L 24.320312 31.015625 L 14.0625 35.460938 Z M 0.660156 4.53125 " clip-rule="nonzero"/></clipPath><clipPath id="48e7b9d20e"><rect x="0" width="25" y="0" height="36"/></clipPath><clipPath id="15c8a5b1d2"><path d="M 8 67 L 45 67 L 45 91 L 8 91 Z M 8 67 " clip-rule="nonzero"/></clipPath><clipPath id="9d2f548657"><path d="M 39.695312 67.363281 L 44.09375 77.644531 L 13.097656 90.894531 L 8.703125 80.617188 Z M 39.695312 67.363281 " clip-rule="nonzero"/></clipPath><clipPath id="81724552d5"><path d="M 0.640625 0.160156 L 36.160156 0.160156 L 36.160156 23.921875 L 0.640625 23.921875 Z M 0.640625 0.160156 " clip-rule="nonzero"/></clipPath><clipPath id="78d357b7f8"><path d="M 31.695312 0.363281 L 36.09375 10.644531 L 5.097656 23.894531 L 0.703125 13.617188 Z M 31.695312 0.363281 " clip-rule="nonzero"/></clipPath><clipPath id="cacbefc5ad"><rect x="0" width="37" y="0" height="24"/></clipPath><clipPath id="5fc2f3a990"><path d="M 38 12 L 57 12 L 57 43 L 38 43 Z M 38 12 " clip-rule="nonzero"/></clipPath><clipPath id="921c06edb7"><path d="M 38.148438 15.441406 L 45.085938 12.433594 L 56.828125 39.527344 L 49.886719 42.535156 Z M 38.148438 15.441406 " clip-rule="nonzero"/></clipPath><clipPath id="76d5d2a2ac"><path d="M 0 0.199219 L 18.878906 0.199219 L 18.878906 30.679688 L 0 30.679688 Z M 0 0.199219 " clip-rule="nonzero"/></clipPath><clipPath id="ef305d73d8"><path d="M 0.148438 3.441406 L 7.085938 0.433594 L 18.828125 27.527344 L 11.886719 30.535156 Z M 0.148438 3.441406 " clip-rule="nonzero"/></clipPath><clipPath id="fe488850b1"><rect x="0" width="19" y="0" height="31"/></clipPath><clipPath id="b40edc47ba"><path d="M 80 36 L 117 36 L 117 60 L 80 60 Z M 80 36 " clip-rule="nonzero"/></clipPath><clipPath id="104d3f7f41"><path d="M 111.792969 36.265625 L 116.1875 46.546875 L 85.195312 59.800781 L 80.796875 49.519531 Z M 111.792969 36.265625 " clip-rule="nonzero"/></clipPath><clipPath id="2791e79ff4"><path d="M 0.640625 0.199219 L 36.398438 0.199219 L 36.398438 23.960938 L 0.640625 23.960938 Z M 0.640625 0.199219 " clip-rule="nonzero"/></clipPath><clipPath id="b7d8117624"><path d="M 31.792969 0.265625 L 36.1875 10.546875 L 5.195312 23.800781 L 0.796875 13.519531 Z M 31.792969 0.265625 " clip-rule="nonzero"/></clipPath><clipPath id="83d4a7b4b1"><rect x="0" width="37" y="0" height="24"/></clipPath><clipPath id="cf77a75331"><path d="M 83 38 L 114 38 L 114 58 L 83 58 Z M 83 38 " clip-rule="nonzero"/></clipPath><clipPath id="084c3bec59"><path d="M 86.375 57.300781 L 83.371094 50.363281 L 110.464844 38.625 L 113.46875 45.5625 Z M 86.375 57.300781 " clip-rule="nonzero"/></clipPath><clipPath id="011ea18672"><path d="M 0.28125 0.601562 L 30.519531 0.601562 L 30.519531 19.320312 L 0.28125 19.320312 Z M 0.28125 0.601562 " clip-rule="nonzero"/></clipPath><clipPath id="ef0bd1b7aa"><path d="M 3.375 19.300781 L 0.371094 12.363281 L 27.464844 0.625 L 30.46875 7.5625 Z M 3.375 19.300781 " clip-rule="nonzero"/></clipPath><clipPath id="1ed82d59de"><rect x="0" width="31" y="0" height="20"/></clipPath><clipPath id="85a90ea175"><path d="M 11 69 L 42 69 L 42 89 L 11 89 Z M 11 69 " clip-rule="nonzero"/></clipPath><clipPath id="8a1259fc30"><path d="M 14.378906 88.089844 L 11.371094 81.148438 L 38.464844 69.410156 L 41.472656 76.351562 Z M 14.378906 88.089844 " clip-rule="nonzero"/></clipPath><clipPath id="6ed6ed3a98"><path d="M 0.28125 0.320312 L 30.519531 0.320312 L 30.519531 19.28125 L 0.28125 19.28125 Z M 0.28125 0.320312 " clip-rule="nonzero"/></clipPath><clipPath id="9ff78995c1"><path d="M 3.378906 19.089844 L 0.371094 12.148438 L 27.464844 0.410156 L 30.472656 7.351562 Z M 3.378906 19.089844 " clip-rule="nonzero"/></clipPath><clipPath id="ad77764660"><rect x="0" width="31" y="0" height="20"/></clipPath><clipPath id="375f421d0e"><rect x="0" width="126" y="0" height="126"/></clipPath></defs><rect x="-37.5" width="450" fill="#ffffff" y="-37.499999" height="449.999989" fill-opacity="1"/><rect x="-37.5" width="450" fill="#0c2647" y="-37.499999" height="449.999989" fill-opacity="1"/><g clip-path="url(#f4e44edd1b)"><path fill="#d6ecfa" d="M 158.074219 123.75 L 188.859375 151.671875 L 193.625 151.671875 L 193.625 130.125 L 224.148438 130.125 L 224.148438 151.671875 L 266.351562 151.671875 L 266.351562 163.011719 L 212.808594 163.011719 L 212.808594 141.464844 L 204.964844 141.464844 L 204.964844 163.011719 L 184.558594 163.011719 L 184.523438 163.050781 L 184.480469 163.011719 L 184.363281 163.011719 L 184.363281 162.90625 L 153.246094 134.679688 L 107.210938 184.082031 L 107.210938 236.253906 L 95.871094 236.253906 L 95.871094 190.84375 L 90.269531 185.625 L 147.066406 124.679688 L 152.496094 118.691406 L 152.574219 118.765625 L 152.644531 118.691406 Z M 158.074219 123.75 " fill-opacity="1" fill-rule="evenodd"/></g><g clip-path="url(#c322fd5c46)"><g transform="matrix(1, 0, 0, 1, 90, 214)"><g clip-path="url(#bec8bb46c4)"><g clip-path="url(#dfb81b331b)"><path fill="#0c2647" d="M 0.269531 0.078125 L 22.34375 0.078125 L 22.34375 67.933594 L 0.269531 67.933594 Z M 0.269531 0.078125 " fill-opacity="1" fill-rule="nonzero"/></g></g></g></g><g clip-path="url(#308603edb2)"><g transform="matrix(1, 0, 0, 1, 250, 162)"><g clip-path="url(#adeba01023)"><g clip-path="url(#db459762c5)"><path fill="#d6ecfa" d="M 0.242188 0.410156 L 11.613281 0.410156 L 11.613281 52.070312 L 0.242188 52.070312 Z M 0.242188 0.410156 " fill-opacity="1" fill-rule="nonzero"/></g></g></g></g><g transform="matrix(1, 0, 0, 1, 144, 85)"><g clip-path="url(#375f421d0e)"><g clip-path="url(#3a90746b47)"><g clip-path="url(#de745e8c33)"><g clip-path="url(#828a4b6d6a)"><path fill="#0c2647" d="M 43.957031 19.347656 C 19.855469 29.789062 8.792969 57.765625 19.234375 81.871094 C 29.675781 105.972656 57.65625 117.035156 81.757812 106.59375 C 105.859375 96.148438 116.921875 68.171875 106.480469 44.070312 C 96.039062 19.96875 68.058594 8.902344 43.957031 19.347656 Z M 77.976562 97.867188 C 58.695312 106.222656 36.3125 97.371094 27.957031 78.089844 C 19.605469 58.808594 28.457031 36.425781 47.738281 28.070312 C 67.019531 19.714844 89.402344 28.566406 97.753906 47.847656 C 106.109375 67.128906 97.257812 89.515625 77.976562 97.867188 Z M 77.976562 97.867188 " fill-opacity="1" fill-rule="nonzero"/></g></g></g><g clip-path="url(#4bdd967a2c)"><g clip-path="url(#52c4b108cd)"><g clip-path="url(#e793ed8638)"><path fill="#0c2647" d="M 48.453125 29.726562 C 30.089844 37.683594 21.65625 59.003906 29.613281 77.371094 C 37.570312 95.734375 58.890625 104.167969 77.257812 96.207031 C 95.625 88.25 104.054688 66.929688 96.097656 48.566406 C 88.140625 30.199219 66.820312 21.769531 48.453125 29.726562 Z M 74.378906 89.5625 C 59.683594 95.925781 42.628906 89.183594 36.261719 74.488281 C 29.898438 59.796875 36.640625 42.742188 51.335938 36.375 C 66.027344 30.007812 83.082031 36.753906 89.449219 51.445312 C 95.8125 66.140625 89.070312 83.195312 74.378906 89.5625 Z M 74.378906 89.5625 " fill-opacity="1" fill-rule="nonzero"/></g></g></g><g clip-path="url(#357907ecf8)"><g clip-path="url(#adfd364559)"><g clip-path="url(#36524a8e5e)"><path fill="#e22626" d="M 45.847656 23.714844 C 24.160156 33.109375 14.203125 58.289062 23.601562 79.980469 C 33 101.667969 58.175781 111.625 79.867188 102.226562 C 101.554688 92.828125 111.511719 67.652344 102.113281 45.960938 C 92.71875 24.273438 67.539062 14.316406 45.847656 23.714844 Z M 76.464844 94.375 C 59.113281 101.894531 38.96875 93.929688 31.453125 76.578125 C 23.933594 59.226562 31.898438 39.082031 49.25 31.566406 C 66.601562 24.046875 86.746094 32.011719 94.261719 49.363281 C 101.78125 66.714844 93.816406 86.859375 76.464844 94.375 Z M 76.464844 94.375 " fill-opacity="1" fill-rule="nonzero"/></g></g></g><g clip-path="url(#33d21ee6a0)"><g clip-path="url(#95ae586ae5)"><g transform="matrix(1, 0, 0, 1, 66, 80)"><g clip-path="url(#08ccb70d5d)"><g clip-path="url(#370fd7e222)"><g clip-path="url(#e33920077f)"><path fill="#0c2647" d="M 0.335938 5.046875 L 10.59375 0.601562 L 23.996094 31.539062 L 13.738281 35.984375 Z M 0.335938 5.046875 " fill-opacity="1" fill-rule="nonzero"/></g></g></g></g></g></g><g clip-path="url(#4db0bdf0d7)"><g clip-path="url(#3889b63632)"><g transform="matrix(1, 0, 0, 1, 68, 83)"><g clip-path="url(#a802359557)"><g clip-path="url(#6c3bd30473)"><g clip-path="url(#8b95c8a0eb)"><path fill="#e22626" d="M 0.824219 3.242188 L 7.765625 0.238281 L 19.496094 27.320312 L 12.558594 30.324219 Z M 0.824219 3.242188 " fill-opacity="1" fill-rule="nonzero"/></g></g></g></g></g></g><g clip-path="url(#ee085b8471)"><g clip-path="url(#6f8486ea38)"><g transform="matrix(1, 0, 0, 1, 35, 10)"><g clip-path="url(#48e7b9d20e)"><g clip-path="url(#a3801c05b1)"><g clip-path="url(#e2fc4b0152)"><path fill="#0c2647" d="M 0.660156 4.53125 L 10.917969 0.0859375 L 24.324219 31.023438 L 14.066406 35.46875 Z M 0.660156 4.53125 " fill-opacity="1" fill-rule="nonzero"/></g></g></g></g></g></g><g clip-path="url(#15c8a5b1d2)"><g clip-path="url(#9d2f548657)"><g transform="matrix(1, 0, 0, 1, 8, 67)"><g clip-path="url(#cacbefc5ad)"><g clip-path="url(#81724552d5)"><g clip-path="url(#78d357b7f8)"><path fill="#0c2647" d="M 31.695312 0.363281 L 36.09375 10.644531 L 5.089844 23.898438 L 0.695312 13.617188 Z M 31.695312 0.363281 " fill-opacity="1" fill-rule="nonzero"/></g></g></g></g></g></g><g clip-path="url(#5fc2f3a990)"><g clip-path="url(#921c06edb7)"><g transform="matrix(1, 0, 0, 1, 38, 12)"><g clip-path="url(#fe488850b1)"><g clip-path="url(#76d5d2a2ac)"><g clip-path="url(#ef305d73d8)"><path fill="#e22626" d="M 0.148438 3.441406 L 7.085938 0.433594 L 18.820312 27.515625 L 11.882812 30.523438 Z M 0.148438 3.441406 " fill-opacity="1" fill-rule="nonzero"/></g></g></g></g></g></g><g clip-path="url(#b40edc47ba)"><g clip-path="url(#104d3f7f41)"><g transform="matrix(1, 0, 0, 1, 80, 36)"><g clip-path="url(#83d4a7b4b1)"><g clip-path="url(#2791e79ff4)"><g clip-path="url(#b7d8117624)"><path fill="#0c2647" d="M 31.792969 0.265625 L 36.1875 10.546875 L 5.183594 23.804688 L 0.789062 13.523438 Z M 31.792969 0.265625 " fill-opacity="1" fill-rule="nonzero"/></g></g></g></g></g></g><g clip-path="url(#cf77a75331)"><g clip-path="url(#084c3bec59)"><g transform="matrix(1, 0, 0, 1, 83, 38)"><g clip-path="url(#1ed82d59de)"><g clip-path="url(#011ea18672)"><g clip-path="url(#ef0bd1b7aa)"><path fill="#e22626" d="M 3.375 19.300781 L 0.371094 12.363281 L 27.453125 0.628906 L 30.457031 7.570312 Z M 3.375 19.300781 " fill-opacity="1" fill-rule="nonzero"/></g></g></g></g></g></g><g clip-path="url(#85a90ea175)"><g clip-path="url(#8a1259fc30)"><g transform="matrix(1, 0, 0, 1, 11, 69)"><g clip-path="url(#ad77764660)"><g clip-path="url(#6ed6ed3a98)"><g clip-path="url(#9ff78995c1)"><path fill="#e22626" d="M 3.378906 19.089844 L 0.371094 12.148438 L 27.453125 0.417969 L 30.460938 7.355469 Z M 3.378906 19.089844 " fill-opacity="1" fill-rule="nonzero"/></g></g></g></g></g></g></g></g><g fill="#d6ecfa" fill-opacity="1"><g transform="translate(127.642247, 221.536392)"><g><path d="M 39.640625 -26.1875 C 45.703125 -24.226562 48.734375 -20.25 48.734375 -14.25 C 48.734375 -9.738281 46.84375 -6.234375 43.0625 -3.734375 C 39.289062 -1.242188 33.898438 0 26.890625 0 L 3.34375 0 L 3.34375 -50.5625 L 29.625 -50.5625 C 34.882812 -50.5625 38.929688 -49.328125 41.765625 -46.859375 C 44.597656 -44.398438 46.015625 -40.878906 46.015625 -36.296875 C 46.015625 -31.515625 43.890625 -28.144531 39.640625 -26.1875 Z M 19.515625 -31.453125 L 27.296875 -31.453125 C 29.796875 -31.453125 31.046875 -32.460938 31.046875 -34.484375 C 31.046875 -36.429688 29.796875 -37.578125 27.296875 -37.921875 L 19.515625 -37.921875 Z M 28.3125 -12.640625 C 31.28125 -12.640625 32.765625 -13.816406 32.765625 -16.171875 C 32.765625 -18.597656 31.28125 -19.8125 28.3125 -19.8125 L 19.515625 -19.8125 L 19.515625 -12.640625 Z M 28.3125 -12.640625 "/></g></g></g><g fill="#d6ecfa" fill-opacity="1"><g transform="translate(182.6306, 221.536392)"><g><path d="M 47.328125 -50.5625 L 47.328125 0 L 30.84375 0 L 30.84375 -18.203125 L 19.71875 -18.203125 L 19.71875 0 L 3.34375 0 L 3.34375 -50.5625 L 19.71875 -50.5625 L 19.71875 -32.359375 L 30.84375 -32.359375 L 30.84375 -50.5625 Z M 47.328125 -50.5625 "/></g></g></g></svg>