<svg xmlns="http://www.w3.org/2000/svg" xmlns:xlink="http://www.w3.org/1999/xlink" width="500" zoomAndPan="magnify" viewBox="0 0 375 374.999991" height="500" preserveAspectRatio="xMidYMid meet" version="1.0"><defs><g/><clipPath id="37703be4ef"><path d="M 322.625 146.214844 L 351.597656 146.214844 L 351.597656 358.195312 L 322.625 358.195312 Z M 322.625 146.214844 " clip-rule="nonzero"/></clipPath><clipPath id="38bce1e270"><path d="M 0.625 0.214844 L 29.597656 0.214844 L 29.597656 212.195312 L 0.625 212.195312 Z M 0.625 0.214844 " clip-rule="nonzero"/></clipPath><clipPath id="0f22605639"><rect x="0" width="30" y="0" height="213"/></clipPath><clipPath id="9e750f0712"><path d="M 9.691406 80.027344 L 375 80.027344 L 375 375 L 9.691406 375 Z M 9.691406 80.027344 " clip-rule="nonzero"/></clipPath><clipPath id="55d29517e7"><path d="M 351.597656 134.960938 L 375 134.960938 L 375 375 L 351.597656 375 Z M 351.597656 134.960938 " clip-rule="nonzero"/></clipPath><clipPath id="791319aa39"><path d="M 0.597656 0.960938 L 24 0.960938 L 24 241 L 0.597656 241 Z M 0.597656 0.960938 " clip-rule="nonzero"/></clipPath><clipPath id="350bb259b0"><rect x="0" width="24" y="0" height="241"/></clipPath><clipPath id="b7521b350a"><path d="M 0 0 L 173 0 L 173 291 L 0 291 Z M 0 0 " clip-rule="nonzero"/></clipPath><clipPath id="02be6735b9"><path d="M 34.632812 -51.449219 L 172.195312 78.84375 L -28.511719 290.746094 L -166.070312 160.453125 Z M 34.632812 -51.449219 " clip-rule="nonzero"/></clipPath><clipPath id="5afe915df2"><path d="M 0 0 L 172.320312 0 L 172.320312 290.878906 L 0 290.878906 Z M 0 0 " clip-rule="nonzero"/></clipPath><clipPath id="672904dc4b"><path d="M 34.632812 -51.449219 L 172.195312 78.84375 L -28.511719 290.746094 L -166.070312 160.453125 Z M 34.632812 -51.449219 " clip-rule="nonzero"/></clipPath><clipPath id="310eca170b"><rect x="0" width="173" y="0" height="291"/></clipPath><clipPath id="a993f5c5ec"><path d="M 67 30 L 277 30 L 277 240 L 67 240 Z M 67 30 " clip-rule="nonzero"/></clipPath><clipPath id="74350d6cd2"><path d="M 141.730469 -9.796875 L 317.113281 104.585938 L 202.730469 279.96875 L 27.347656 165.585938 Z M 141.730469 -9.796875 " clip-rule="nonzero"/></clipPath><clipPath id="ae0c5856b1"><path d="M 141.730469 -9.796875 L 317.113281 104.585938 L 202.730469 279.96875 L 27.347656 165.585938 Z M 141.730469 -9.796875 " clip-rule="nonzero"/></clipPath><clipPath id="66f4df26d4"><path d="M 92 55 L 252 55 L 252 215 L 92 215 Z M 92 55 " clip-rule="nonzero"/></clipPath><clipPath id="fc3d4a9db1"><path d="M 148.984375 24.648438 L 283.1875 112.175781 L 195.660156 246.378906 L 61.457031 158.851562 Z M 148.984375 24.648438 " clip-rule="nonzero"/></clipPath><clipPath id="d5fd69ead3"><path d="M 148.984375 24.648438 L 283.1875 112.175781 L 195.660156 246.378906 L 61.457031 158.851562 Z M 148.984375 24.648438 " clip-rule="nonzero"/></clipPath><clipPath id="f4b6e1496d"><path d="M 78 40 L 267 40 L 267 230 L 78 230 Z M 78 40 " clip-rule="nonzero"/></clipPath><clipPath id="e718b94dd0"><path d="M 144.78125 4.695312 L 301.859375 107.144531 L 199.414062 264.222656 L 42.332031 161.773438 Z M 144.78125 4.695312 " clip-rule="nonzero"/></clipPath><clipPath id="24fb158370"><path d="M 144.78125 4.695312 L 301.859375 107.144531 L 199.414062 264.222656 L 42.332031 161.773438 Z M 144.78125 4.695312 " clip-rule="nonzero"/></clipPath><clipPath id="e56834583d"><path d="M 95 168 L 157 168 L 157 244 L 95 244 Z M 95 168 " clip-rule="nonzero"/></clipPath><clipPath id="25bd4b4ee0"><path d="M 135.902344 168.109375 L 156.503906 181.546875 L 115.992188 243.664062 L 95.390625 230.226562 Z M 135.902344 168.109375 " clip-rule="nonzero"/></clipPath><clipPath id="62cef0dd64"><path d="M 0.28125 0 L 61.71875 0 L 61.71875 75.839844 L 0.28125 75.839844 Z M 0.28125 0 " clip-rule="nonzero"/></clipPath><clipPath id="cdd47d5f9d"><path d="M 40.902344 0.109375 L 61.503906 13.546875 L 20.992188 75.664062 L 0.390625 62.226562 Z M 40.902344 0.109375 " clip-rule="nonzero"/></clipPath><clipPath id="6f73dff689"><rect x="0" width="62" y="0" height="76"/></clipPath><clipPath id="ab5c9f9ce6"><path d="M 101 174 L 151 174 L 151 238 L 101 238 Z M 101 174 " clip-rule="nonzero"/></clipPath><clipPath id="09bd11e6ea"><path d="M 136.722656 174.132812 L 150.660156 183.222656 L 115.171875 237.636719 L 101.234375 228.546875 Z M 136.722656 174.132812 " clip-rule="nonzero"/></clipPath><clipPath id="7e97970528"><path d="M 0.0390625 0 L 49.71875 0 L 49.71875 63.839844 L 0.0390625 63.839844 Z M 0.0390625 0 " clip-rule="nonzero"/></clipPath><clipPath id="1396dbac3b"><path d="M 35.722656 0.132812 L 49.660156 9.222656 L 14.171875 63.636719 L 0.234375 54.546875 Z M 35.722656 0.132812 " clip-rule="nonzero"/></clipPath><clipPath id="68e12d0e2d"><rect x="0" width="50" y="0" height="64"/></clipPath><clipPath id="00d9bddf05"><path d="M 187 26 L 249 26 L 249 102 L 187 102 Z M 187 26 " clip-rule="nonzero"/></clipPath><clipPath id="08ca910f71"><path d="M 228.113281 26.273438 L 248.71875 39.710938 L 208.207031 101.824219 L 187.601562 88.386719 Z M 228.113281 26.273438 " clip-rule="nonzero"/></clipPath><clipPath id="7b18de03ea"><path d="M 0.441406 0.160156 L 61.878906 0.160156 L 61.878906 76 L 0.441406 76 Z M 0.441406 0.160156 " clip-rule="nonzero"/></clipPath><clipPath id="1189d70cff"><path d="M 41.113281 0.273438 L 61.71875 13.710938 L 21.207031 75.824219 L 0.601562 62.386719 Z M 41.113281 0.273438 " clip-rule="nonzero"/></clipPath><clipPath id="44793ffbf9"><rect x="0" width="62" y="0" height="76"/></clipPath><clipPath id="35c6f85fee"><path d="M 60 56 L 137 56 L 137 119 L 60 119 Z M 60 56 " clip-rule="nonzero"/></clipPath><clipPath id="abed5c8bbb"><path d="M 136.042969 97.769531 L 122.507812 118.308594 L 60.585938 77.5 L 74.121094 56.960938 Z M 136.042969 97.769531 " clip-rule="nonzero"/></clipPath><clipPath id="d6d3e6aec5"><path d="M 0.480469 0.878906 L 76.078125 0.878906 L 76.078125 62.320312 L 0.480469 62.320312 Z M 0.480469 0.878906 " clip-rule="nonzero"/></clipPath><clipPath id="1d5bbb13aa"><path d="M 76.042969 41.769531 L 62.507812 62.308594 L 0.585938 21.5 L 14.121094 0.960938 Z M 76.042969 41.769531 " clip-rule="nonzero"/></clipPath><clipPath id="fdbcb847e4"><rect x="0" width="77" y="0" height="63"/></clipPath><clipPath id="fa2c64d567"><path d="M 193 31 L 244 31 L 244 96 L 193 96 Z M 193 31 " clip-rule="nonzero"/></clipPath><clipPath id="2b3e5ca43d"><path d="M 229.460938 31.941406 L 243.398438 41.03125 L 207.910156 95.445312 L 193.972656 86.355469 Z M 229.460938 31.941406 " clip-rule="nonzero"/></clipPath><clipPath id="0f26b3b27a"><path d="M 0.921875 0.921875 L 50.601562 0.921875 L 50.601562 64.519531 L 0.921875 64.519531 Z M 0.921875 0.921875 " clip-rule="nonzero"/></clipPath><clipPath id="836c55df86"><path d="M 36.460938 0.941406 L 50.398438 10.03125 L 14.910156 64.445312 L 0.972656 55.355469 Z M 36.460938 0.941406 " clip-rule="nonzero"/></clipPath><clipPath id="41b3b777a5"><rect x="0" width="51" y="0" height="65"/></clipPath><clipPath id="2eb36ce48f"><path d="M 205 151 L 281 151 L 281 213 L 205 213 Z M 205 151 " clip-rule="nonzero"/></clipPath><clipPath id="35b9ebd455"><path d="M 280.570312 192.367188 L 267.035156 212.90625 L 205.113281 172.097656 L 218.648438 151.558594 Z M 280.570312 192.367188 " clip-rule="nonzero"/></clipPath><clipPath id="9364b409e6"><path d="M 0 0.441406 L 75.800781 0.441406 L 75.800781 62 L 0 62 Z M 0 0.441406 " clip-rule="nonzero"/></clipPath><clipPath id="46513b3d75"><path d="M 75.570312 41.367188 L 62.035156 61.90625 L 0.113281 21.097656 L 13.648438 0.558594 Z M 75.570312 41.367188 " clip-rule="nonzero"/></clipPath><clipPath id="4a8160d687"><rect x="0" width="76" y="0" height="62"/></clipPath><clipPath id="7ee666e33b"><path d="M 211 157 L 275 157 L 275 207 L 211 207 Z M 211 157 " clip-rule="nonzero"/></clipPath><clipPath id="4bbc9afe6c"><path d="M 211.132812 171.238281 L 220.222656 157.300781 L 274.636719 192.789062 L 265.546875 206.726562 Z M 211.132812 171.238281 " clip-rule="nonzero"/></clipPath><clipPath id="e35743a2dd"><path d="M 0 0.199219 L 63.800781 0.199219 L 63.800781 49.878906 L 0 49.878906 Z M 0 0.199219 " clip-rule="nonzero"/></clipPath><clipPath id="8276ee57b3"><path d="M 0.132812 14.238281 L 9.222656 0.300781 L 63.636719 35.789062 L 54.546875 49.726562 Z M 0.132812 14.238281 " clip-rule="nonzero"/></clipPath><clipPath id="59275415c6"><rect x="0" width="64" y="0" height="50"/></clipPath><clipPath id="42559e7b09"><path d="M 67 62 L 131 62 L 131 112 L 67 112 Z M 67 62 " clip-rule="nonzero"/></clipPath><clipPath id="51bf9a002f"><path d="M 67.289062 76.445312 L 76.378906 62.507812 L 130.792969 97.996094 L 121.703125 111.933594 Z M 67.289062 76.445312 " clip-rule="nonzero"/></clipPath><clipPath id="ef208c5c05"><path d="M 0.199219 0.398438 L 63.800781 0.398438 L 63.800781 50 L 0.199219 50 Z M 0.199219 0.398438 " clip-rule="nonzero"/></clipPath><clipPath id="9d2bb666b4"><path d="M 0.289062 14.445312 L 9.378906 0.507812 L 63.792969 35.996094 L 54.703125 49.933594 Z M 0.289062 14.445312 " clip-rule="nonzero"/></clipPath><clipPath id="96d7b87a77"><rect x="0" width="64" y="0" height="50"/></clipPath><clipPath id="9a70031807"><rect x="0" width="363" y="0" height="326"/></clipPath><clipPath id="d83162da2b"><path d="M 9.691406 358.195312 L 65.398438 358.195312 L 65.398438 375 L 9.691406 375 Z M 9.691406 358.195312 " clip-rule="nonzero"/></clipPath><clipPath id="123d09f22e"><path d="M 0.691406 0.195312 L 56.398438 0.195312 L 56.398438 17 L 0.691406 17 Z M 0.691406 0.195312 " clip-rule="nonzero"/></clipPath><clipPath id="bc9ce65ecf"><rect x="0" width="57" y="0" height="17"/></clipPath><clipPath id="87820dbf60"><path d="M 0.078125 0.160156 L 115 0.160156 L 115 154 L 0.078125 154 Z M 0.078125 0.160156 " clip-rule="nonzero"/></clipPath><clipPath id="e814a11e4b"><rect x="0" width="115" y="0" height="154"/></clipPath><clipPath id="7416ab53cf"><rect x="0" width="214" y="0" height="162"/></clipPath></defs><rect x="-37.5" width="450" fill="#ffffff" y="-37.499999" height="449.999989" fill-opacity="1"/><rect x="-37.5" width="450" fill="#0c2647" y="-37.499999" height="449.999989" fill-opacity="1"/><g clip-path="url(#37703be4ef)"><g transform="matrix(1, 0, 0, 1, 322, 146)"><g clip-path="url(#0f22605639)"><g clip-path="url(#38bce1e270)"><path fill="#d6ecfa" d="M 0.625 0.214844 L 29.597656 0.214844 L 29.597656 212.1875 L 0.625 212.1875 Z M 0.625 0.214844 " fill-opacity="1" fill-rule="nonzero"/></g></g></g></g><g clip-path="url(#9e750f0712)"><path fill="#d6ecfa" d="M 182.6875 92.960938 L 261.230469 164.203125 L 273.394531 164.203125 L 273.394531 109.230469 L 351.277344 109.230469 L 351.277344 164.203125 L 458.953125 164.203125 L 458.953125 193.136719 L 322.34375 193.136719 L 322.34375 138.164062 L 302.332031 138.164062 L 302.332031 193.136719 L 250.265625 193.136719 L 250.175781 193.238281 L 250.066406 193.136719 L 249.765625 193.136719 L 249.765625 192.867188 L 170.367188 120.851562 L 52.910156 246.894531 L 52.910156 380.003906 L 23.976562 380.003906 L 23.976562 264.144531 L 9.691406 250.832031 L 154.601562 95.328125 L 168.457031 80.054688 L 168.660156 80.242188 L 168.835938 80.054688 Z M 182.6875 92.960938 " fill-opacity="1" fill-rule="evenodd"/></g><g clip-path="url(#55d29517e7)"><g transform="matrix(1, 0, 0, 1, 351, 134)"><g clip-path="url(#350bb259b0)"><g clip-path="url(#791319aa39)"><path fill="#0c2647" d="M 0.597656 0.960938 L 190.066406 0.960938 L 190.066406 297.007812 L 0.597656 297.007812 Z M 0.597656 0.960938 " fill-opacity="1" fill-rule="nonzero"/></g></g></g></g><g clip-path="url(#b7521b350a)"><g clip-path="url(#02be6735b9)"><g transform="matrix(1, 0, 0, 1, 0, 0)"><g clip-path="url(#310eca170b)"><g clip-path="url(#5afe915df2)"><g clip-path="url(#672904dc4b)"><path fill="#0c2647" d="M 34.632812 -51.449219 L 172.195312 78.84375 L -28.332031 290.554688 L -165.890625 160.265625 Z M 34.632812 -51.449219 " fill-opacity="1" fill-rule="nonzero"/></g></g></g></g></g></g><g transform="matrix(1, 0, 0, 1, 0, 0)"><g clip-path="url(#9a70031807)"><g clip-path="url(#a993f5c5ec)"><g clip-path="url(#74350d6cd2)"><g clip-path="url(#ae0c5856b1)"><path fill="#0c2647" d="M 229.339844 47.339844 C 180.9375 15.773438 116.164062 29.410156 84.59375 77.8125 C 53.027344 126.214844 66.660156 190.984375 115.0625 222.554688 C 163.464844 254.121094 228.238281 240.488281 259.808594 192.085938 C 291.375 143.683594 277.742188 78.910156 229.339844 47.339844 Z M 126.492188 205.03125 C 87.769531 179.777344 76.863281 127.960938 102.117188 89.238281 C 127.371094 50.515625 179.1875 39.609375 217.910156 64.863281 C 256.632812 90.117188 267.539062 141.933594 242.285156 180.65625 C 217.03125 219.378906 165.214844 230.289062 126.492188 205.03125 Z M 126.492188 205.03125 " fill-opacity="1" fill-rule="nonzero"/></g></g></g><g clip-path="url(#66f4df26d4)"><g clip-path="url(#fc3d4a9db1)"><g clip-path="url(#d5fd69ead3)"><path fill="#0c2647" d="M 215.742188 68.1875 C 178.859375 44.132812 129.5 54.523438 105.445312 91.40625 C 81.390625 128.289062 91.78125 177.644531 128.664062 201.699219 C 165.546875 225.753906 214.902344 215.367188 238.957031 178.484375 C 263.011719 141.601562 252.625 92.242188 215.742188 68.1875 Z M 137.371094 188.347656 C 107.863281 169.105469 99.554688 129.621094 118.796875 100.113281 C 138.039062 70.605469 177.527344 62.296875 207.03125 81.539062 C 236.539062 100.78125 244.851562 140.269531 225.605469 169.773438 C 206.363281 199.28125 166.878906 207.59375 137.371094 188.347656 Z M 137.371094 188.347656 " fill-opacity="1" fill-rule="nonzero"/></g></g></g><g clip-path="url(#f4b6e1496d)"><g clip-path="url(#e718b94dd0)"><g clip-path="url(#24fb158370)"><path fill="#e22626" d="M 223.617188 56.113281 C 180.0625 27.707031 121.769531 39.976562 93.363281 83.535156 C 64.953125 127.089844 77.226562 185.378906 120.78125 213.789062 C 164.339844 242.195312 222.628906 229.925781 251.039062 186.367188 C 279.445312 142.8125 267.175781 84.523438 223.617188 56.113281 Z M 131.066406 198.019531 C 96.21875 175.292969 86.402344 128.664062 109.128906 93.816406 C 131.855469 58.96875 178.488281 49.15625 213.335938 71.882812 C 248.179688 94.609375 257.996094 141.238281 235.269531 176.085938 C 212.542969 210.933594 165.914062 220.746094 131.066406 198.019531 Z M 131.066406 198.019531 " fill-opacity="1" fill-rule="nonzero"/></g></g></g><g clip-path="url(#e56834583d)"><g clip-path="url(#25bd4b4ee0)"><g transform="matrix(1, 0, 0, 1, 95, 168)"><g clip-path="url(#6f73dff689)"><g clip-path="url(#62cef0dd64)"><g clip-path="url(#cdd47d5f9d)"><path fill="#0c2647" d="M 40.902344 0.109375 L 61.503906 13.546875 L 20.980469 75.679688 L 0.378906 62.242188 Z M 40.902344 0.109375 " fill-opacity="1" fill-rule="nonzero"/></g></g></g></g></g></g><g clip-path="url(#ab5c9f9ce6)"><g clip-path="url(#09bd11e6ea)"><g transform="matrix(1, 0, 0, 1, 101, 174)"><g clip-path="url(#68e12d0e2d)"><g clip-path="url(#7e97970528)"><g clip-path="url(#1396dbac3b)"><path fill="#e22626" d="M 35.722656 0.132812 L 49.660156 9.222656 L 14.1875 63.609375 L 0.25 54.519531 Z M 35.722656 0.132812 " fill-opacity="1" fill-rule="nonzero"/></g></g></g></g></g></g><g clip-path="url(#00d9bddf05)"><g clip-path="url(#08ca910f71)"><g transform="matrix(1, 0, 0, 1, 187, 26)"><g clip-path="url(#44793ffbf9)"><g clip-path="url(#7b18de03ea)"><g clip-path="url(#1189d70cff)"><path fill="#0c2647" d="M 41.113281 0.273438 L 61.71875 13.710938 L 21.195312 75.839844 L 0.589844 62.402344 Z M 41.113281 0.273438 " fill-opacity="1" fill-rule="nonzero"/></g></g></g></g></g></g><g clip-path="url(#35c6f85fee)"><g clip-path="url(#abed5c8bbb)"><g transform="matrix(1, 0, 0, 1, 60, 56)"><g clip-path="url(#fdbcb847e4)"><g clip-path="url(#d6d3e6aec5)"><g clip-path="url(#1d5bbb13aa)"><path fill="#0c2647" d="M 76.042969 41.769531 L 62.507812 62.308594 L 0.570312 21.492188 L 14.105469 0.953125 Z M 76.042969 41.769531 " fill-opacity="1" fill-rule="nonzero"/></g></g></g></g></g></g><g clip-path="url(#fa2c64d567)"><g clip-path="url(#2b3e5ca43d)"><g transform="matrix(1, 0, 0, 1, 193, 31)"><g clip-path="url(#41b3b777a5)"><g clip-path="url(#0f26b3b27a)"><g clip-path="url(#836c55df86)"><path fill="#e22626" d="M 36.460938 0.941406 L 50.398438 10.03125 L 14.925781 64.421875 L 0.988281 55.332031 Z M 36.460938 0.941406 " fill-opacity="1" fill-rule="nonzero"/></g></g></g></g></g></g><g clip-path="url(#2eb36ce48f)"><g clip-path="url(#35b9ebd455)"><g transform="matrix(1, 0, 0, 1, 205, 151)"><g clip-path="url(#4a8160d687)"><g clip-path="url(#9364b409e6)"><g clip-path="url(#46513b3d75)"><path fill="#0c2647" d="M 75.570312 41.367188 L 62.035156 61.90625 L 0.0976562 21.089844 L 13.632812 0.550781 Z M 75.570312 41.367188 " fill-opacity="1" fill-rule="nonzero"/></g></g></g></g></g></g><g clip-path="url(#7ee666e33b)"><g clip-path="url(#4bbc9afe6c)"><g transform="matrix(1, 0, 0, 1, 211, 157)"><g clip-path="url(#59275415c6)"><g clip-path="url(#e35743a2dd)"><g clip-path="url(#8276ee57b3)"><path fill="#e22626" d="M 0.132812 14.238281 L 9.222656 0.300781 L 63.609375 35.773438 L 54.519531 49.710938 Z M 0.132812 14.238281 " fill-opacity="1" fill-rule="nonzero"/></g></g></g></g></g></g><g clip-path="url(#42559e7b09)"><g clip-path="url(#51bf9a002f)"><g transform="matrix(1, 0, 0, 1, 67, 62)"><g clip-path="url(#96d7b87a77)"><g clip-path="url(#ef208c5c05)"><g clip-path="url(#9d2bb666b4)"><path fill="#e22626" d="M 0.289062 14.445312 L 9.378906 0.507812 L 63.765625 35.980469 L 54.675781 49.917969 Z M 0.289062 14.445312 " fill-opacity="1" fill-rule="nonzero"/></g></g></g></g></g></g></g></g><g clip-path="url(#d83162da2b)"><g transform="matrix(1, 0, 0, 1, 9, 358)"><g clip-path="url(#bc9ce65ecf)"><g clip-path="url(#123d09f22e)"><path fill="#0c2647" d="M 0.691406 0.195312 L 56.335938 0.195312 L 56.335938 35.546875 L 0.691406 35.546875 Z M 0.691406 0.195312 " fill-opacity="1" fill-rule="nonzero"/></g></g></g></g><g transform="matrix(1, 0, 0, 1, 94, 206)"><g clip-path="url(#7416ab53cf)"><g clip-path="url(#87820dbf60)"><g><g clip-path="url(#e814a11e4b)"><g fill="#0c2647" fill-opacity="1"><g transform="translate(0.0971956, 131.730302)"><g><path d="M 80.25 -53.03125 C 92.539062 -49.070312 98.6875 -41.019531 98.6875 -28.875 C 98.6875 -19.726562 94.863281 -12.628906 87.21875 -7.578125 C 79.570312 -2.523438 68.648438 0 54.453125 0 L 6.75 0 L 6.75 -102.359375 L 59.984375 -102.359375 C 70.628906 -102.359375 78.816406 -99.867188 84.546875 -94.890625 C 90.285156 -89.910156 93.15625 -82.78125 93.15625 -73.5 C 93.15625 -63.8125 88.851562 -56.988281 80.25 -53.03125 Z M 39.515625 -63.671875 L 55.28125 -63.671875 C 60.332031 -63.671875 62.859375 -65.71875 62.859375 -69.8125 C 62.859375 -73.769531 60.332031 -76.09375 55.28125 -76.78125 L 39.515625 -76.78125 Z M 57.328125 -25.59375 C 63.328125 -25.59375 66.328125 -27.976562 66.328125 -32.75 C 66.328125 -37.664062 63.328125 -40.125 57.328125 -40.125 L 39.515625 -40.125 L 39.515625 -25.59375 Z M 57.328125 -25.59375 "/></g></g></g></g></g></g><g fill="#0c2647" fill-opacity="1"><g transform="translate(96.25201, 138.659617)"><g><path d="M 100.921875 -107.828125 L 100.921875 0 L 65.765625 0 L 65.765625 -38.8125 L 42.046875 -38.8125 L 42.046875 0 L 7.109375 0 L 7.109375 -107.828125 L 42.046875 -107.828125 L 42.046875 -69 L 65.765625 -69 L 65.765625 -107.828125 Z M 100.921875 -107.828125 "/></g></g></g><g fill="#d6ecfa" fill-opacity="1"><g transform="translate(0.0971956, 128.474672)"><g><path d="M 74 -48.890625 C 85.332031 -45.242188 91 -37.820312 91 -26.625 C 91 -18.1875 87.472656 -11.640625 80.421875 -6.984375 C 73.378906 -2.328125 63.3125 0 50.21875 0 L 6.234375 0 L 6.234375 -94.390625 L 55.3125 -94.390625 C 65.132812 -94.390625 72.6875 -92.09375 77.96875 -87.5 C 83.257812 -82.90625 85.90625 -76.332031 85.90625 -67.78125 C 85.90625 -58.84375 81.9375 -52.546875 74 -48.890625 Z M 36.4375 -58.71875 L 50.96875 -58.71875 C 55.625 -58.71875 57.953125 -60.601562 57.953125 -64.375 C 57.953125 -68.03125 55.625 -70.171875 50.96875 -70.796875 L 36.4375 -70.796875 Z M 52.859375 -23.59375 C 58.398438 -23.59375 61.171875 -25.796875 61.171875 -30.203125 C 61.171875 -34.734375 58.398438 -37 52.859375 -37 L 36.4375 -37 L 36.4375 -23.59375 Z M 52.859375 -23.59375 "/></g></g></g><g fill="#d6ecfa" fill-opacity="1"><g transform="translate(102.7599, 128.474672)"><g><path d="M 88.359375 -94.390625 L 88.359375 0 L 57.578125 0 L 57.578125 -33.984375 L 36.8125 -33.984375 L 36.8125 0 L 6.234375 0 L 6.234375 -94.390625 L 36.8125 -94.390625 L 36.8125 -60.421875 L 57.578125 -60.421875 L 57.578125 -94.390625 Z M 88.359375 -94.390625 "/></g></g></g></g></g></svg>