<svg xmlns="http://www.w3.org/2000/svg" xmlns:xlink="http://www.w3.org/1999/xlink" width="500" zoomAndPan="magnify" viewBox="0 0 375 374.999991" height="500" preserveAspectRatio="xMidYMid meet" version="1.0"><defs><g/><clipPath id="4dc53aca9a"><path d="M 9.691406 72.894531 L 375 72.894531 L 375 372.894531 L 9.691406 372.894531 Z M 9.691406 72.894531 " clip-rule="nonzero"/></clipPath><clipPath id="b7a31f76a7"><path d="M 351.597656 132.859375 L 375 132.859375 L 375 375 L 351.597656 375 Z M 351.597656 132.859375 " clip-rule="nonzero"/></clipPath><clipPath id="60a9104cba"><path d="M 0.597656 0.859375 L 24 0.859375 L 24 243 L 0.597656 243 Z M 0.597656 0.859375 " clip-rule="nonzero"/></clipPath><clipPath id="b16a41d4d3"><rect x="0" width="24" y="0" height="243"/></clipPath><clipPath id="5ab9f8110c"><path d="M 0 0 L 173 0 L 173 289 L 0 289 Z M 0 0 " clip-rule="nonzero"/></clipPath><clipPath id="5c5d4e6652"><path d="M 34.632812 -53.550781 L 172.195312 76.742188 L -28.511719 288.640625 L -166.070312 158.351562 Z M 34.632812 -53.550781 " clip-rule="nonzero"/></clipPath><clipPath id="7ba57e9057"><path d="M 0 0 L 172.320312 0 L 172.320312 288.71875 L 0 288.71875 Z M 0 0 " clip-rule="nonzero"/></clipPath><clipPath id="01332536f7"><path d="M 34.632812 -53.550781 L 172.195312 76.742188 L -28.511719 288.640625 L -166.070312 158.351562 Z M 34.632812 -53.550781 " clip-rule="nonzero"/></clipPath><clipPath id="6fe9c5f828"><rect x="0" width="173" y="0" height="289"/></clipPath><clipPath id="61a5e5a51d"><path d="M 86 87 L 296 87 L 296 297 L 86 297 Z M 86 87 " clip-rule="nonzero"/></clipPath><clipPath id="9732aa7876"><path d="M 160.003906 47.328125 L 336.078125 160.640625 L 222.765625 336.710938 L 46.691406 223.398438 Z M 160.003906 47.328125 " clip-rule="nonzero"/></clipPath><clipPath id="2bfc5df8a8"><path d="M 160.003906 47.328125 L 336.078125 160.640625 L 222.765625 336.710938 L 46.691406 223.398438 Z M 160.003906 47.328125 " clip-rule="nonzero"/></clipPath><clipPath id="deb217c6e3"><path d="M 111 112 L 272 112 L 272 272 L 111 272 Z M 111 112 " clip-rule="nonzero"/></clipPath><clipPath id="d2277fff45"><path d="M 167.46875 81.726562 L 302.199219 168.4375 L 215.492188 303.171875 L 80.757812 216.460938 Z M 167.46875 81.726562 " clip-rule="nonzero"/></clipPath><clipPath id="0f7ee4ae63"><path d="M 167.46875 81.726562 L 302.199219 168.4375 L 215.492188 303.171875 L 80.757812 216.460938 Z M 167.46875 81.726562 " clip-rule="nonzero"/></clipPath><clipPath id="a71b0aee22"><path d="M 97 97 L 286 97 L 286 287 L 97 287 Z M 97 97 " clip-rule="nonzero"/></clipPath><clipPath id="03c084c501"><path d="M 163.144531 61.800781 L 320.84375 163.289062 L 219.351562 320.988281 L 61.652344 219.5 Z M 163.144531 61.800781 " clip-rule="nonzero"/></clipPath><clipPath id="ffabbedd08"><path d="M 163.144531 61.800781 L 320.84375 163.289062 L 219.351562 320.988281 L 61.652344 219.5 Z M 163.144531 61.800781 " clip-rule="nonzero"/></clipPath><clipPath id="f2997e8cf0"><path d="M 115 225 L 176 225 L 176 301 L 115 301 Z M 115 225 " clip-rule="nonzero"/></clipPath><clipPath id="438e57eca5"><path d="M 155.257812 225.265625 L 175.941406 238.578125 L 135.808594 300.9375 L 115.125 287.625 Z M 155.257812 225.265625 " clip-rule="nonzero"/></clipPath><clipPath id="b4e8d6761e"><path d="M 0 0.078125 L 60.960938 0.078125 L 60.960938 76 L 0 76 Z M 0 0.078125 " clip-rule="nonzero"/></clipPath><clipPath id="1a83cbaa8c"><path d="M 40.257812 0.265625 L 60.941406 13.578125 L 20.808594 75.9375 L 0.125 62.625 Z M 40.257812 0.265625 " clip-rule="nonzero"/></clipPath><clipPath id="8f3050f79d"><rect x="0" width="61" y="0" height="76"/></clipPath><clipPath id="4688621be5"><path d="M 120 231 L 171 231 L 171 295 L 120 295 Z M 120 231 " clip-rule="nonzero"/></clipPath><clipPath id="9635c36a10"><path d="M 156.117188 231.28125 L 170.109375 240.289062 L 134.949219 294.914062 L 120.960938 285.910156 Z M 156.117188 231.28125 " clip-rule="nonzero"/></clipPath><clipPath id="946eaabbb4"><path d="M 0.761719 0.078125 L 50.199219 0.078125 L 50.199219 63.921875 L 0.761719 63.921875 Z M 0.761719 0.078125 " clip-rule="nonzero"/></clipPath><clipPath id="5233e002cd"><path d="M 36.117188 0.28125 L 50.109375 9.289062 L 14.949219 63.914062 L 0.960938 54.910156 Z M 36.117188 0.28125 " clip-rule="nonzero"/></clipPath><clipPath id="ae2bf392ec"><rect x="0" width="51" y="0" height="64"/></clipPath><clipPath id="53caff7029"><path d="M 206 82 L 268 82 L 268 159 L 206 159 Z M 206 82 " clip-rule="nonzero"/></clipPath><clipPath id="4b85679846"><path d="M 246.605469 82.867188 L 267.289062 96.179688 L 227.15625 158.539062 L 206.472656 145.230469 Z M 246.605469 82.867188 " clip-rule="nonzero"/></clipPath><clipPath id="3408609bf3"><path d="M 0.441406 0.761719 L 61.398438 0.761719 L 61.398438 76.601562 L 0.441406 76.601562 Z M 0.441406 0.761719 " clip-rule="nonzero"/></clipPath><clipPath id="82f3c4b30d"><path d="M 40.605469 0.867188 L 61.289062 14.179688 L 21.15625 76.539062 L 0.472656 63.230469 Z M 40.605469 0.867188 " clip-rule="nonzero"/></clipPath><clipPath id="0dfd92c135"><rect x="0" width="62" y="0" height="77"/></clipPath><clipPath id="492f827cd8"><path d="M 79 114 L 155 114 L 155 176 L 79 176 Z M 79 114 " clip-rule="nonzero"/></clipPath><clipPath id="78f8c84818"><path d="M 154.972656 154.925781 L 141.558594 175.546875 L 79.390625 135.117188 L 92.800781 114.496094 Z M 154.972656 154.925781 " clip-rule="nonzero"/></clipPath><clipPath id="9baa7d500a"><path d="M 0.238281 0.441406 L 76 0.441406 L 76 61.640625 L 0.238281 61.640625 Z M 0.238281 0.441406 " clip-rule="nonzero"/></clipPath><clipPath id="47271065f4"><path d="M 75.972656 40.925781 L 62.558594 61.546875 L 0.390625 21.117188 L 13.800781 0.496094 Z M 75.972656 40.925781 " clip-rule="nonzero"/></clipPath><clipPath id="b299942599"><rect x="0" width="76" y="0" height="62"/></clipPath><clipPath id="b59304e2da"><path d="M 212 88 L 262 88 L 262 153 L 212 153 Z M 212 88 " clip-rule="nonzero"/></clipPath><clipPath id="d5c3e927c3"><path d="M 247.984375 88.53125 L 261.976562 97.535156 L 226.820312 152.164062 L 212.828125 143.160156 Z M 247.984375 88.53125 " clip-rule="nonzero"/></clipPath><clipPath id="2e1bf788d8"><path d="M 0.679688 0.519531 L 50 0.519531 L 50 64.359375 L 0.679688 64.359375 Z M 0.679688 0.519531 " clip-rule="nonzero"/></clipPath><clipPath id="89874b5dcd"><path d="M 35.984375 0.53125 L 49.976562 9.535156 L 14.820312 64.164062 L 0.828125 55.160156 Z M 35.984375 0.53125 " clip-rule="nonzero"/></clipPath><clipPath id="03ebbb37ff"><rect x="0" width="50" y="0" height="65"/></clipPath><clipPath id="59651cfeb3"><path d="M 224 208 L 298 208 L 298 270 L 224 270 Z M 224 208 " clip-rule="nonzero"/></clipPath><clipPath id="cab6331b39"><path d="M 300.070312 248.640625 L 286.660156 269.261719 L 224.492188 228.832031 L 237.902344 208.210938 Z M 300.070312 248.640625 " clip-rule="nonzero"/></clipPath><clipPath id="49ffe70b42"><path d="M 0.441406 0.0390625 L 74 0.0390625 L 74 61.480469 L 0.441406 61.480469 Z M 0.441406 0.0390625 " clip-rule="nonzero"/></clipPath><clipPath id="c243c59c5e"><path d="M 76.070312 40.640625 L 62.660156 61.261719 L 0.492188 20.832031 L 13.902344 0.210938 Z M 76.070312 40.640625 " clip-rule="nonzero"/></clipPath><clipPath id="618ad2247b"><rect x="0" width="74" y="0" height="62"/></clipPath><clipPath id="dd4fcdd9ab"><path d="M 230 213 L 295 213 L 295 264 L 230 264 Z M 230 213 " clip-rule="nonzero"/></clipPath><clipPath id="2f659b229e"><path d="M 230.507812 227.9375 L 239.511719 213.945312 L 294.140625 249.101562 L 285.132812 263.09375 Z M 230.507812 227.9375 " clip-rule="nonzero"/></clipPath><clipPath id="decd56a255"><path d="M 0.441406 0.800781 L 64.28125 0.800781 L 64.28125 50.238281 L 0.441406 50.238281 Z M 0.441406 0.800781 " clip-rule="nonzero"/></clipPath><clipPath id="bdb0ae2977"><path d="M 0.507812 14.9375 L 9.511719 0.945312 L 64.140625 36.101562 L 55.132812 50.09375 Z M 0.507812 14.9375 " clip-rule="nonzero"/></clipPath><clipPath id="d33dcb9912"><rect x="0" width="65" y="0" height="51"/></clipPath><clipPath id="c2827078e8"><path d="M 86 120 L 150 120 L 150 170 L 86 170 Z M 86 120 " clip-rule="nonzero"/></clipPath><clipPath id="39628e7393"><path d="M 86.089844 134.019531 L 95.09375 120.027344 L 149.722656 155.183594 L 140.714844 169.175781 Z M 86.089844 134.019531 " clip-rule="nonzero"/></clipPath><clipPath id="ef0f5350a8"><path d="M 0 0 L 63.800781 0 L 63.800781 49.398438 L 0 49.398438 Z M 0 0 " clip-rule="nonzero"/></clipPath><clipPath id="9e7a5fba50"><path d="M 0.0898438 14.019531 L 9.09375 0.0273438 L 63.722656 35.183594 L 54.714844 49.175781 Z M 0.0898438 14.019531 " clip-rule="nonzero"/></clipPath><clipPath id="b65240c966"><rect x="0" width="64" y="0" height="50"/></clipPath><clipPath id="56bcf6949c"><rect x="0" width="298" y="0" height="344"/></clipPath><clipPath id="ce321b9a2b"><path d="M 9.691406 280.707031 L 65.398438 280.707031 L 65.398438 375 L 9.691406 375 Z M 9.691406 280.707031 " clip-rule="nonzero"/></clipPath><clipPath id="58878a8403"><path d="M 0.691406 0.707031 L 56.398438 0.707031 L 56.398438 95 L 0.691406 95 Z M 0.691406 0.707031 " clip-rule="nonzero"/></clipPath><clipPath id="e45a2efb59"><rect x="0" width="57" y="0" height="95"/></clipPath><clipPath id="1c0e40fdb8"><path d="M 0.078125 0 L 115 0 L 115 154 L 0.078125 154 Z M 0.078125 0 " clip-rule="nonzero"/></clipPath><clipPath id="2b19705ff0"><rect x="0" width="115" y="0" height="154"/></clipPath><clipPath id="da333eb0a5"><rect x="0" width="214" y="0" height="162"/></clipPath></defs><rect x="-37.5" width="450" fill="#ffffff" y="-37.499999" height="449.999989" fill-opacity="1"/><rect x="-37.5" width="450" fill="#0c2647" y="-37.499999" height="449.999989" fill-opacity="1"/><g clip-path="url(#4dc53aca9a)"><path fill="#d6ecfa" d="M 182.6875 85.828125 L 261.230469 157.070312 L 273.394531 157.070312 L 273.394531 102.097656 L 351.277344 102.097656 L 351.277344 157.070312 L 458.953125 157.070312 L 458.953125 186.003906 L 322.34375 186.003906 L 322.34375 131.03125 L 302.332031 131.03125 L 302.332031 186.003906 L 250.265625 186.003906 L 250.175781 186.105469 L 250.066406 186.003906 L 249.765625 186.003906 L 249.765625 185.734375 L 170.367188 113.71875 L 52.910156 239.761719 L 52.910156 372.871094 L 23.976562 372.871094 L 23.976562 257.011719 L 9.691406 243.699219 L 154.601562 88.195312 L 168.457031 72.921875 L 168.660156 73.109375 L 168.835938 72.921875 Z M 182.6875 85.828125 " fill-opacity="1" fill-rule="evenodd"/></g><g clip-path="url(#b7a31f76a7)"><g transform="matrix(1, 0, 0, 1, 351, 132)"><g clip-path="url(#b16a41d4d3)"><g clip-path="url(#60a9104cba)"><path fill="#0c2647" d="M 0.597656 0.859375 L 190.066406 0.859375 L 190.066406 296.902344 L 0.597656 296.902344 Z M 0.597656 0.859375 " fill-opacity="1" fill-rule="nonzero"/></g></g></g></g><g clip-path="url(#5ab9f8110c)"><g clip-path="url(#5c5d4e6652)"><g transform="matrix(1, 0, 0, 1, 0, 0)"><g clip-path="url(#6fe9c5f828)"><g clip-path="url(#7ba57e9057)"><g clip-path="url(#01332536f7)"><path fill="#0c2647" d="M 34.632812 -53.550781 L 172.195312 76.742188 L -28.332031 288.453125 L -165.890625 158.160156 Z M 34.632812 -53.550781 " fill-opacity="1" fill-rule="nonzero"/></g></g></g></g></g></g><g transform="matrix(1, 0, 0, 1, 77, 31)"><g clip-path="url(#56bcf6949c)"><g clip-path="url(#61a5e5a51d)"><g clip-path="url(#9732aa7876)"><g clip-path="url(#2bfc5df8a8)"><path fill="#0c2647" d="M 247.957031 103.929688 C 199.363281 72.65625 134.675781 86.683594 103.402344 135.277344 C 72.128906 183.871094 86.15625 248.5625 134.75 279.835938 C 183.34375 311.109375 248.035156 297.078125 279.308594 248.484375 C 310.582031 199.890625 296.550781 135.203125 247.957031 103.929688 Z M 146.074219 262.242188 C 107.199219 237.226562 95.972656 185.472656 120.992188 146.597656 C 146.011719 107.726562 197.761719 96.5 236.636719 121.519531 C 275.511719 146.539062 286.734375 198.289062 261.714844 237.164062 C 236.699219 276.039062 184.949219 287.261719 146.074219 262.242188 Z M 146.074219 262.242188 " fill-opacity="1" fill-rule="nonzero"/></g></g></g><g clip-path="url(#deb217c6e3)"><g clip-path="url(#d2277fff45)"><g clip-path="url(#0f7ee4ae63)"><path fill="#0c2647" d="M 234.488281 124.859375 C 197.457031 101.027344 148.164062 111.71875 124.335938 148.746094 C 100.503906 185.773438 111.195312 235.066406 148.222656 258.898438 C 185.253906 282.726562 234.546875 272.039062 258.375 235.011719 C 282.207031 197.980469 271.515625 148.6875 234.488281 124.859375 Z M 156.851562 245.496094 C 127.226562 226.429688 118.675781 186.996094 137.738281 157.371094 C 156.804688 127.75 196.238281 119.199219 225.859375 138.261719 C 255.484375 157.328125 264.035156 196.761719 244.972656 226.382812 C 225.90625 256.007812 186.472656 264.558594 156.851562 245.496094 Z M 156.851562 245.496094 " fill-opacity="1" fill-rule="nonzero"/></g></g></g><g clip-path="url(#a71b0aee22)"><g clip-path="url(#03c084c501)"><g clip-path="url(#ffabbedd08)"><path fill="#e22626" d="M 242.292969 112.738281 C 198.5625 84.59375 140.347656 97.21875 112.207031 140.949219 C 84.0625 184.675781 96.6875 242.890625 140.417969 271.035156 C 184.144531 299.175781 242.359375 286.550781 270.503906 242.824219 C 298.644531 199.09375 286.019531 140.878906 242.292969 112.738281 Z M 150.605469 255.203125 C 115.621094 232.691406 105.519531 186.121094 128.035156 151.136719 C 150.550781 116.152344 197.121094 106.050781 232.105469 128.566406 C 267.089844 151.082031 277.1875 197.652344 254.671875 232.636719 C 232.160156 267.617188 185.589844 277.71875 150.605469 255.203125 Z M 150.605469 255.203125 " fill-opacity="1" fill-rule="nonzero"/></g></g></g><g clip-path="url(#f2997e8cf0)"><g clip-path="url(#438e57eca5)"><g transform="matrix(1, 0, 0, 1, 115, 225)"><g clip-path="url(#8f3050f79d)"><g clip-path="url(#b4e8d6761e)"><g clip-path="url(#1a83cbaa8c)"><path fill="#0c2647" d="M 40.257812 0.265625 L 60.941406 13.578125 L 20.796875 75.953125 L 0.113281 62.640625 Z M 40.257812 0.265625 " fill-opacity="1" fill-rule="nonzero"/></g></g></g></g></g></g><g clip-path="url(#4688621be5)"><g clip-path="url(#9635c36a10)"><g transform="matrix(1, 0, 0, 1, 120, 231)"><g clip-path="url(#ae2bf392ec)"><g clip-path="url(#946eaabbb4)"><g clip-path="url(#5233e002cd)"><path fill="#e22626" d="M 36.117188 0.28125 L 50.109375 9.289062 L 14.96875 63.890625 L 0.976562 54.886719 Z M 36.117188 0.28125 " fill-opacity="1" fill-rule="nonzero"/></g></g></g></g></g></g><g clip-path="url(#53caff7029)"><g clip-path="url(#4b85679846)"><g transform="matrix(1, 0, 0, 1, 206, 82)"><g clip-path="url(#0dfd92c135)"><g clip-path="url(#3408609bf3)"><g clip-path="url(#82f3c4b30d)"><path fill="#0c2647" d="M 40.605469 0.867188 L 61.289062 14.179688 L 21.148438 76.558594 L 0.460938 63.246094 Z M 40.605469 0.867188 " fill-opacity="1" fill-rule="nonzero"/></g></g></g></g></g></g><g clip-path="url(#492f827cd8)"><g clip-path="url(#78f8c84818)"><g transform="matrix(1, 0, 0, 1, 79, 114)"><g clip-path="url(#b299942599)"><g clip-path="url(#9baa7d500a)"><g clip-path="url(#47271065f4)"><path fill="#0c2647" d="M 75.972656 40.925781 L 62.558594 61.546875 L 0.375 21.105469 L 13.785156 0.484375 Z M 75.972656 40.925781 " fill-opacity="1" fill-rule="nonzero"/></g></g></g></g></g></g><g clip-path="url(#b59304e2da)"><g clip-path="url(#d5c3e927c3)"><g transform="matrix(1, 0, 0, 1, 212, 88)"><g clip-path="url(#03ebbb37ff)"><g clip-path="url(#2e1bf788d8)"><g clip-path="url(#89874b5dcd)"><path fill="#e22626" d="M 35.984375 0.53125 L 49.976562 9.535156 L 14.835938 64.136719 L 0.847656 55.132812 Z M 35.984375 0.53125 " fill-opacity="1" fill-rule="nonzero"/></g></g></g></g></g></g><g clip-path="url(#59651cfeb3)"><g clip-path="url(#cab6331b39)"><g transform="matrix(1, 0, 0, 1, 224, 208)"><g clip-path="url(#618ad2247b)"><g clip-path="url(#49ffe70b42)"><g clip-path="url(#c243c59c5e)"><path fill="#0c2647" d="M 76.070312 40.640625 L 62.660156 61.261719 L 0.476562 20.820312 L 13.886719 0.199219 Z M 76.070312 40.640625 " fill-opacity="1" fill-rule="nonzero"/></g></g></g></g></g></g><g clip-path="url(#dd4fcdd9ab)"><g clip-path="url(#2f659b229e)"><g transform="matrix(1, 0, 0, 1, 230, 213)"><g clip-path="url(#d33dcb9912)"><g clip-path="url(#decd56a255)"><g clip-path="url(#bdb0ae2977)"><path fill="#e22626" d="M 0.507812 14.9375 L 9.511719 0.945312 L 64.113281 36.085938 L 55.109375 50.078125 Z M 0.507812 14.9375 " fill-opacity="1" fill-rule="nonzero"/></g></g></g></g></g></g><g clip-path="url(#c2827078e8)"><g clip-path="url(#39628e7393)"><g transform="matrix(1, 0, 0, 1, 86, 120)"><g clip-path="url(#b65240c966)"><g clip-path="url(#ef0f5350a8)"><g clip-path="url(#9e7a5fba50)"><path fill="#e22626" d="M 0.0898438 14.019531 L 9.09375 0.0273438 L 63.695312 35.167969 L 54.691406 49.160156 Z M 0.0898438 14.019531 " fill-opacity="1" fill-rule="nonzero"/></g></g></g></g></g></g></g></g><g clip-path="url(#ce321b9a2b)"><g transform="matrix(1, 0, 0, 1, 9, 280)"><g clip-path="url(#e45a2efb59)"><g clip-path="url(#58878a8403)"><path fill="#0c2647" d="M 0.691406 0.707031 L 56.398438 0.707031 L 56.398438 111.46875 L 0.691406 111.46875 Z M 0.691406 0.707031 " fill-opacity="1" fill-rule="nonzero"/></g></g></g></g><g transform="matrix(1, 0, 0, 1, 94, 204)"><g clip-path="url(#da333eb0a5)"><g clip-path="url(#1c0e40fdb8)"><g><g clip-path="url(#2b19705ff0)"><g fill="#0c2647" fill-opacity="1"><g transform="translate(0.0971956, 131.627958)"><g><path d="M 80.25 -53.03125 C 92.539062 -49.070312 98.6875 -41.019531 98.6875 -28.875 C 98.6875 -19.726562 94.863281 -12.628906 87.21875 -7.578125 C 79.570312 -2.523438 68.648438 0 54.453125 0 L 6.75 0 L 6.75 -102.359375 L 59.984375 -102.359375 C 70.628906 -102.359375 78.816406 -99.867188 84.546875 -94.890625 C 90.285156 -89.910156 93.15625 -82.78125 93.15625 -73.5 C 93.15625 -63.8125 88.851562 -56.988281 80.25 -53.03125 Z M 39.515625 -63.671875 L 55.28125 -63.671875 C 60.332031 -63.671875 62.859375 -65.71875 62.859375 -69.8125 C 62.859375 -73.769531 60.332031 -76.09375 55.28125 -76.78125 L 39.515625 -76.78125 Z M 57.328125 -25.59375 C 63.328125 -25.59375 66.328125 -27.976562 66.328125 -32.75 C 66.328125 -37.664062 63.328125 -40.125 57.328125 -40.125 L 39.515625 -40.125 L 39.515625 -25.59375 Z M 57.328125 -25.59375 "/></g></g></g></g></g></g><g fill="#0c2647" fill-opacity="1"><g transform="translate(96.25201, 138.557273)"><g><path d="M 100.921875 -107.828125 L 100.921875 0 L 65.765625 0 L 65.765625 -38.8125 L 42.046875 -38.8125 L 42.046875 0 L 7.109375 0 L 7.109375 -107.828125 L 42.046875 -107.828125 L 42.046875 -69 L 65.765625 -69 L 65.765625 -107.828125 Z M 100.921875 -107.828125 "/></g></g></g><g fill="#d6ecfa" fill-opacity="1"><g transform="translate(0.0971956, 128.372328)"><g><path d="M 74 -48.890625 C 85.332031 -45.242188 91 -37.820312 91 -26.625 C 91 -18.1875 87.472656 -11.640625 80.421875 -6.984375 C 73.378906 -2.328125 63.3125 0 50.21875 0 L 6.234375 0 L 6.234375 -94.390625 L 55.3125 -94.390625 C 65.132812 -94.390625 72.6875 -92.09375 77.96875 -87.5 C 83.257812 -82.90625 85.90625 -76.332031 85.90625 -67.78125 C 85.90625 -58.84375 81.9375 -52.546875 74 -48.890625 Z M 36.4375 -58.71875 L 50.96875 -58.71875 C 55.625 -58.71875 57.953125 -60.601562 57.953125 -64.375 C 57.953125 -68.03125 55.625 -70.171875 50.96875 -70.796875 L 36.4375 -70.796875 Z M 52.859375 -23.59375 C 58.398438 -23.59375 61.171875 -25.796875 61.171875 -30.203125 C 61.171875 -34.734375 58.398438 -37 52.859375 -37 L 36.4375 -37 L 36.4375 -23.59375 Z M 52.859375 -23.59375 "/></g></g></g><g fill="#d6ecfa" fill-opacity="1"><g transform="translate(102.7599, 128.372328)"><g><path d="M 88.359375 -94.390625 L 88.359375 0 L 57.578125 0 L 57.578125 -33.984375 L 36.8125 -33.984375 L 36.8125 0 L 6.234375 0 L 6.234375 -94.390625 L 36.8125 -94.390625 L 36.8125 -60.421875 L 57.578125 -60.421875 L 57.578125 -94.390625 Z M 88.359375 -94.390625 "/></g></g></g></g></g></svg>