<svg xmlns="http://www.w3.org/2000/svg" xmlns:xlink="http://www.w3.org/1999/xlink" width="500" zoomAndPan="magnify" viewBox="0 0 375 374.999991" height="500" preserveAspectRatio="xMidYMid meet" version="1.0"><defs><g/><clipPath id="5affbf4c52"><path d="M 0 67.402344 L 339.457031 67.402344 L 339.457031 375 L 0 375 Z M 0 67.402344 " clip-rule="nonzero"/></clipPath><clipPath id="975dc3e2ab"><path d="M 0 0.402344 L 339.457031 0.402344 L 339.457031 308 L 0 308 Z M 0 0.402344 " clip-rule="nonzero"/></clipPath><clipPath id="4630920ccc"><rect x="0" width="340" y="0" height="308"/></clipPath><clipPath id="de307859ff"><path d="M 0 0 L 150 0 L 150 298 L 0 298 Z M 0 0 " clip-rule="nonzero"/></clipPath><clipPath id="f059886857"><path d="M 8.054688 -76.027344 L 149.683594 79.621094 L -90.082031 297.792969 L -231.710938 142.144531 Z M 8.054688 -76.027344 " clip-rule="nonzero"/></clipPath><clipPath id="6b45e8395f"><path d="M 0 0 L 149.761719 0 L 149.761719 297.839844 L 0 297.839844 Z M 0 0 " clip-rule="nonzero"/></clipPath><clipPath id="ecea889d8e"><path d="M 8.054688 -76.027344 L 149.683594 79.621094 L -90.082031 297.792969 L -231.710938 142.144531 Z M 8.054688 -76.027344 " clip-rule="nonzero"/></clipPath><clipPath id="765cd98003"><rect x="0" width="150" y="0" height="298"/></clipPath><clipPath id="6d677c907d"><path d="M 47 47 L 241 47 L 241 242 L 47 242 Z M 47 47 " clip-rule="nonzero"/></clipPath><clipPath id="0c0da59af6"><path d="M 25.3125 76.621094 L 212.132812 25.535156 L 263.222656 212.355469 L 76.398438 263.445312 Z M 25.3125 76.621094 " clip-rule="nonzero"/></clipPath><clipPath id="ebee33a1ab"><path d="M 25.3125 76.621094 L 212.132812 25.535156 L 263.222656 212.355469 L 76.398438 263.445312 Z M 25.3125 76.621094 " clip-rule="nonzero"/></clipPath><clipPath id="d1c898f535"><path d="M 70 70 L 218 70 L 218 219 L 70 219 Z M 70 70 " clip-rule="nonzero"/></clipPath><clipPath id="f03fb2be3d"><path d="M 53.59375 92.757812 L 196.554688 53.664062 L 235.648438 196.625 L 92.6875 235.71875 Z M 53.59375 92.757812 " clip-rule="nonzero"/></clipPath><clipPath id="40a634078a"><path d="M 53.59375 92.757812 L 196.554688 53.664062 L 235.648438 196.625 L 92.6875 235.71875 Z M 53.59375 92.757812 " clip-rule="nonzero"/></clipPath><clipPath id="8ca9a9d7df"><path d="M 57 57 L 232 57 L 232 232 L 57 232 Z M 57 57 " clip-rule="nonzero"/></clipPath><clipPath id="890493753d"><path d="M 37.207031 83.410156 L 204.539062 37.652344 L 250.296875 204.984375 L 82.964844 250.742188 Z M 37.207031 83.410156 " clip-rule="nonzero"/></clipPath><clipPath id="387db1a953"><path d="M 37.207031 83.410156 L 204.539062 37.652344 L 250.296875 204.984375 L 82.964844 250.742188 Z M 37.207031 83.410156 " clip-rule="nonzero"/></clipPath><clipPath id="f50e1a6bdb"><path d="M 144 183 L 185 183 L 185 257 L 144 257 Z M 144 183 " clip-rule="nonzero"/></clipPath><clipPath id="6f4b500c7e"><path d="M 144.804688 189.902344 L 166.753906 183.898438 L 184.847656 250.066406 L 162.902344 256.070312 Z M 144.804688 189.902344 " clip-rule="nonzero"/></clipPath><clipPath id="3ad81f51e7"><path d="M 0.601562 0.878906 L 40.921875 0.878906 L 40.921875 73.121094 L 0.601562 73.121094 Z M 0.601562 0.878906 " clip-rule="nonzero"/></clipPath><clipPath id="f3f2391fa1"><path d="M 0.804688 6.902344 L 22.753906 0.898438 L 40.847656 67.066406 L 18.902344 73.070312 Z M 0.804688 6.902344 " clip-rule="nonzero"/></clipPath><clipPath id="ff541b10f3"><rect x="0" width="41" y="0" height="74"/></clipPath><clipPath id="00003b951b"><path d="M 149 188 L 181 188 L 181 251 L 149 251 Z M 149 188 " clip-rule="nonzero"/></clipPath><clipPath id="8ea27605d3"><path d="M 149.476562 193.03125 L 164.324219 188.972656 L 180.175781 246.933594 L 165.328125 250.996094 Z M 149.476562 193.03125 " clip-rule="nonzero"/></clipPath><clipPath id="03d5e8b8e4"><path d="M 0.398438 0.921875 L 31.359375 0.921875 L 31.359375 63 L 0.398438 63 Z M 0.398438 0.921875 " clip-rule="nonzero"/></clipPath><clipPath id="eb0895b4e9"><path d="M 0.476562 5.03125 L 15.324219 0.972656 L 31.175781 58.933594 L 16.328125 62.996094 Z M 0.476562 5.03125 " clip-rule="nonzero"/></clipPath><clipPath id="901cb5ce62"><rect x="0" width="32" y="0" height="63"/></clipPath><clipPath id="e39100735f"><path d="M 103 33 L 144 33 L 144 106 L 103 106 Z M 103 33 " clip-rule="nonzero"/></clipPath><clipPath id="db53643dd0"><path d="M 103.304688 39.011719 L 125.253906 33.007812 L 143.347656 99.179688 L 121.402344 105.179688 Z M 103.304688 39.011719 " clip-rule="nonzero"/></clipPath><clipPath id="08979ca56c"><path d="M 0.078125 0 L 40.398438 0 L 40.398438 72.398438 L 0.078125 72.398438 Z M 0.078125 0 " clip-rule="nonzero"/></clipPath><clipPath id="d8215a8b5b"><path d="M 0.304688 6.011719 L 22.253906 0.0078125 L 40.347656 66.179688 L 18.402344 72.179688 Z M 0.304688 6.011719 " clip-rule="nonzero"/></clipPath><clipPath id="610c463573"><rect x="0" width="41" y="0" height="73"/></clipPath><clipPath id="d8bde76825"><path d="M 29 146 L 103 146 L 103 187 L 29 187 Z M 29 146 " clip-rule="nonzero"/></clipPath><clipPath id="ad153fc7ec"><path d="M 96.230469 146.609375 L 102.128906 168.585938 L 35.875 186.363281 L 29.976562 164.390625 Z M 96.230469 146.609375 " clip-rule="nonzero"/></clipPath><clipPath id="89d3614d45"><path d="M 0.878906 0.441406 L 73.359375 0.441406 L 73.359375 40.519531 L 0.878906 40.519531 Z M 0.878906 0.441406 " clip-rule="nonzero"/></clipPath><clipPath id="712f530da2"><path d="M 67.230469 0.609375 L 73.128906 22.585938 L 6.875 40.363281 L 0.976562 18.390625 Z M 67.230469 0.609375 " clip-rule="nonzero"/></clipPath><clipPath id="fbe80b6413"><rect x="0" width="74" y="0" height="41"/></clipPath><clipPath id="d250c1aed3"><path d="M 108 37 L 139 37 L 139 100 L 108 100 Z M 108 37 " clip-rule="nonzero"/></clipPath><clipPath id="8439c0d5a2"><path d="M 108.054688 41.5625 L 122.902344 37.503906 L 138.753906 95.464844 L 123.90625 99.527344 Z M 108.054688 41.5625 " clip-rule="nonzero"/></clipPath><clipPath id="d0125083a0"><path d="M 0 0.480469 L 30.839844 0.480469 L 30.839844 62.640625 L 0 62.640625 Z M 0 0.480469 " clip-rule="nonzero"/></clipPath><clipPath id="55ab0510af"><path d="M 0.0546875 4.5625 L 14.902344 0.503906 L 30.753906 58.464844 L 15.90625 62.527344 Z M 0.0546875 4.5625 " clip-rule="nonzero"/></clipPath><clipPath id="9b25ec6448"><rect x="0" width="31" y="0" height="63"/></clipPath><clipPath id="1f900b1f5f"><path d="M 184 104 L 257 104 L 257 145 L 184 145 Z M 184 104 " clip-rule="nonzero"/></clipPath><clipPath id="964dc108c3"><path d="M 250.421875 104.714844 L 256.320312 126.691406 L 190.066406 144.46875 L 184.167969 122.492188 Z M 250.421875 104.714844 " clip-rule="nonzero"/></clipPath><clipPath id="159e183179"><path d="M 0 0.679688 L 72.441406 0.679688 L 72.441406 40.519531 L 0 40.519531 Z M 0 0.679688 " clip-rule="nonzero"/></clipPath><clipPath id="eb1c2e7935"><path d="M 66.421875 0.714844 L 72.320312 22.691406 L 6.066406 40.46875 L 0.167969 18.492188 Z M 66.421875 0.714844 " clip-rule="nonzero"/></clipPath><clipPath id="a2de21118c"><rect x="0" width="73" y="0" height="41"/></clipPath><clipPath id="0500056717"><path d="M 189 109 L 252 109 L 252 140 L 189 140 Z M 189 109 " clip-rule="nonzero"/></clipPath><clipPath id="09d937b0ed"><path d="M 193.167969 139.777344 L 189.105469 124.929688 L 247.070312 109.082031 L 251.128906 123.925781 Z M 193.167969 139.777344 " clip-rule="nonzero"/></clipPath><clipPath id="2a45729d0e"><path d="M 0 0 L 62.160156 0 L 62.160156 30.960938 L 0 30.960938 Z M 0 0 " clip-rule="nonzero"/></clipPath><clipPath id="0b14f64f73"><path d="M 4.167969 30.777344 L 0.105469 15.929688 L 58.070312 0.0820312 L 62.128906 14.925781 Z M 4.167969 30.777344 " clip-rule="nonzero"/></clipPath><clipPath id="1983fb7388"><rect x="0" width="63" y="0" height="31"/></clipPath><clipPath id="8c3dfffd0c"><path d="M 35 150 L 98 150 L 98 182 L 35 182 Z M 35 150 " clip-rule="nonzero"/></clipPath><clipPath id="a293ce1b1d"><path d="M 39.257812 181.078125 L 35.199219 166.234375 L 93.164062 150.382812 L 97.222656 165.226562 Z M 39.257812 181.078125 " clip-rule="nonzero"/></clipPath><clipPath id="f964007522"><path d="M 0.160156 0.28125 L 62.320312 0.28125 L 62.320312 31.238281 L 0.160156 31.238281 Z M 0.160156 0.28125 " clip-rule="nonzero"/></clipPath><clipPath id="08e4a1328c"><path d="M 4.257812 31.078125 L 0.199219 16.234375 L 58.164062 0.382812 L 62.222656 15.226562 Z M 4.257812 31.078125 " clip-rule="nonzero"/></clipPath><clipPath id="eeb40e3983"><rect x="0" width="63" y="0" height="32"/></clipPath><clipPath id="5f274cc1d3"><rect x="0" width="270" y="0" height="289"/></clipPath><clipPath id="41dacf7394"><path d="M 277.839844 264.371094 L 339.714844 264.371094 L 339.714844 375 L 277.839844 375 Z M 277.839844 264.371094 " clip-rule="nonzero"/></clipPath><clipPath id="9b77cb0529"><path d="M 0.839844 0.371094 L 62.714844 0.371094 L 62.714844 111 L 0.839844 111 Z M 0.839844 0.371094 " clip-rule="nonzero"/></clipPath><clipPath id="998afd44e5"><rect x="0" width="63" y="0" height="111"/></clipPath><clipPath id="aecad922b5"><rect x="0" width="148" y="0" height="203"/></clipPath><clipPath id="33ad171745"><rect x="0" width="229" y="0" height="159"/></clipPath></defs><rect x="-37.5" width="450" fill="#ffffff" y="-37.499999" height="449.999989" fill-opacity="1"/><rect x="-37.5" width="450" fill="#0c2647" y="-37.499999" height="449.999989" fill-opacity="1"/><g clip-path="url(#5affbf4c52)"><g transform="matrix(1, 0, 0, 1, 0, 67)"><g clip-path="url(#4630920ccc)"><g clip-path="url(#975dc3e2ab)"><path fill="#d6ecfa" d="M 147.5625 14.765625 L 60.324219 93.890625 L 46.816406 93.890625 L 46.816406 32.832031 L -39.683594 32.832031 L -39.683594 93.890625 L -159.277344 93.890625 L -159.277344 126.027344 L -7.550781 126.027344 L -7.550781 64.96875 L 14.679688 64.96875 L 14.679688 126.027344 L 72.507812 126.027344 L 72.605469 126.140625 L 72.730469 126.027344 L 73.058594 126.027344 L 73.058594 125.726562 L 161.246094 45.742188 L 291.703125 185.734375 L 291.703125 333.574219 L 323.835938 333.574219 L 323.835938 204.894531 L 339.703125 190.109375 L 178.757812 17.394531 L 163.371094 0.429688 L 163.140625 0.636719 L 162.949219 0.429688 Z M 147.5625 14.765625 " fill-opacity="1" fill-rule="evenodd"/></g></g></g></g><g clip-path="url(#de307859ff)"><g clip-path="url(#f059886857)"><g transform="matrix(1, 0, 0, 1, 0, 0)"><g clip-path="url(#765cd98003)"><g clip-path="url(#6b45e8395f)"><g clip-path="url(#ecea889d8e)"><path fill="#0c2647" d="M 8.054688 -76.027344 L 149.683594 79.621094 L -89.867188 297.597656 L -231.496094 141.949219 Z M 8.054688 -76.027344 " fill-opacity="1" fill-rule="nonzero"/></g></g></g></g></g></g><g transform="matrix(1, 0, 0, 1, 105, 5)"><g clip-path="url(#5f274cc1d3)"><g clip-path="url(#6d677c907d)"><g clip-path="url(#0c0da59af6)"><g clip-path="url(#ebee33a1ab)"><path fill="#0c2647" d="M 118.632812 51.101562 C 67.074219 65.203125 36.730469 118.382812 50.832031 169.945312 C 64.929688 221.507812 118.113281 251.847656 169.675781 237.75 C 221.234375 223.648438 251.578125 170.464844 237.476562 118.90625 C 223.378906 67.34375 170.195312 37.003906 118.632812 51.101562 Z M 164.570312 219.082031 C 123.320312 230.363281 80.777344 206.089844 69.496094 164.839844 C 58.214844 123.59375 82.488281 81.046875 123.738281 69.765625 C 164.988281 58.488281 207.53125 82.761719 218.8125 124.007812 C 230.09375 165.257812 205.820312 207.804688 164.570312 219.082031 Z M 164.570312 219.082031 " fill-opacity="1" fill-rule="nonzero"/></g></g></g><g clip-path="url(#d1c898f535)"><g clip-path="url(#f03fb2be3d)"><g clip-path="url(#40a634078a)"><path fill="#0c2647" d="M 124.707031 73.308594 C 85.414062 84.054688 62.296875 124.578125 73.039062 163.867188 C 83.785156 203.160156 124.308594 226.277344 163.597656 215.535156 C 202.886719 204.789062 226.007812 164.265625 215.265625 124.976562 C 204.519531 85.6875 163.996094 62.566406 124.707031 73.308594 Z M 159.710938 201.3125 C 128.277344 209.90625 95.859375 191.410156 87.261719 159.980469 C 78.667969 128.546875 97.164062 96.128906 128.59375 87.53125 C 160.027344 78.9375 192.445312 97.433594 201.042969 128.863281 C 209.636719 160.296875 191.140625 192.71875 159.710938 201.3125 Z M 159.710938 201.3125 " fill-opacity="1" fill-rule="nonzero"/></g></g></g><g clip-path="url(#8ca9a9d7df)"><g clip-path="url(#890493753d)"><g clip-path="url(#387db1a953)"><path fill="#e22626" d="M 121.191406 60.445312 C 74.789062 73.132812 47.484375 120.992188 60.175781 167.394531 C 72.863281 213.792969 120.722656 241.097656 167.121094 228.410156 C 213.523438 215.722656 240.828125 167.863281 228.136719 121.460938 C 215.449219 75.0625 167.589844 47.757812 121.191406 60.445312 Z M 162.527344 211.613281 C 125.410156 221.765625 87.121094 199.921875 76.96875 162.800781 C 66.820312 125.679688 88.664062 87.394531 125.785156 77.242188 C 162.902344 67.089844 201.191406 88.933594 211.339844 126.054688 C 221.492188 163.175781 199.648438 201.460938 162.527344 211.613281 Z M 162.527344 211.613281 " fill-opacity="1" fill-rule="nonzero"/></g></g></g><g clip-path="url(#f50e1a6bdb)"><g clip-path="url(#6f4b500c7e)"><g transform="matrix(1, 0, 0, 1, 144, 183)"><g clip-path="url(#ff541b10f3)"><g clip-path="url(#3ad81f51e7)"><g clip-path="url(#f3f2391fa1)"><path fill="#0c2647" d="M 0.804688 6.902344 L 22.753906 0.898438 L 40.851562 67.085938 L 18.90625 73.085938 Z M 0.804688 6.902344 " fill-opacity="1" fill-rule="nonzero"/></g></g></g></g></g></g><g clip-path="url(#00003b951b)"><g clip-path="url(#8ea27605d3)"><g transform="matrix(1, 0, 0, 1, 149, 188)"><g clip-path="url(#901cb5ce62)"><g clip-path="url(#03d5e8b8e4)"><g clip-path="url(#eb0895b4e9)"><path fill="#e22626" d="M 0.476562 5.03125 L 15.324219 0.972656 L 31.167969 58.90625 L 16.320312 62.96875 Z M 0.476562 5.03125 " fill-opacity="1" fill-rule="nonzero"/></g></g></g></g></g></g><g clip-path="url(#e39100735f)"><g clip-path="url(#db53643dd0)"><g transform="matrix(1, 0, 0, 1, 103, 33)"><g clip-path="url(#610c463573)"><g clip-path="url(#08979ca56c)"><g clip-path="url(#d8215a8b5b)"><path fill="#0c2647" d="M 0.304688 6.011719 L 22.253906 0.0078125 L 40.355469 66.195312 L 18.40625 72.195312 Z M 0.304688 6.011719 " fill-opacity="1" fill-rule="nonzero"/></g></g></g></g></g></g><g clip-path="url(#d8bde76825)"><g clip-path="url(#ad153fc7ec)"><g transform="matrix(1, 0, 0, 1, 29, 146)"><g clip-path="url(#fbe80b6413)"><g clip-path="url(#89d3614d45)"><g clip-path="url(#712f530da2)"><path fill="#0c2647" d="M 67.230469 0.609375 L 73.128906 22.585938 L 6.855469 40.371094 L 0.960938 18.394531 Z M 67.230469 0.609375 " fill-opacity="1" fill-rule="nonzero"/></g></g></g></g></g></g><g clip-path="url(#d250c1aed3)"><g clip-path="url(#8439c0d5a2)"><g transform="matrix(1, 0, 0, 1, 108, 37)"><g clip-path="url(#9b25ec6448)"><g clip-path="url(#d0125083a0)"><g clip-path="url(#55ab0510af)"><path fill="#e22626" d="M 0.0546875 4.5625 L 14.902344 0.503906 L 30.746094 58.4375 L 15.898438 62.5 Z M 0.0546875 4.5625 " fill-opacity="1" fill-rule="nonzero"/></g></g></g></g></g></g><g clip-path="url(#1f900b1f5f)"><g clip-path="url(#964dc108c3)"><g transform="matrix(1, 0, 0, 1, 184, 104)"><g clip-path="url(#a2de21118c)"><g clip-path="url(#159e183179)"><g clip-path="url(#eb1c2e7935)"><path fill="#0c2647" d="M 66.421875 0.714844 L 72.320312 22.691406 L 6.046875 40.472656 L 0.152344 18.496094 Z M 66.421875 0.714844 " fill-opacity="1" fill-rule="nonzero"/></g></g></g></g></g></g><g clip-path="url(#0500056717)"><g clip-path="url(#09d937b0ed)"><g transform="matrix(1, 0, 0, 1, 189, 109)"><g clip-path="url(#1983fb7388)"><g clip-path="url(#2a45729d0e)"><g clip-path="url(#0b14f64f73)"><path fill="#e22626" d="M 4.167969 30.777344 L 0.105469 15.929688 L 58.042969 0.0859375 L 62.105469 14.933594 Z M 4.167969 30.777344 " fill-opacity="1" fill-rule="nonzero"/></g></g></g></g></g></g><g clip-path="url(#8c3dfffd0c)"><g clip-path="url(#a293ce1b1d)"><g transform="matrix(1, 0, 0, 1, 35, 150)"><g clip-path="url(#eeb40e3983)"><g clip-path="url(#f964007522)"><g clip-path="url(#08e4a1328c)"><path fill="#e22626" d="M 4.257812 31.078125 L 0.199219 16.234375 L 58.136719 0.390625 L 62.195312 15.234375 Z M 4.257812 31.078125 " fill-opacity="1" fill-rule="nonzero"/></g></g></g></g></g></g></g></g><g clip-path="url(#41dacf7394)"><g transform="matrix(1, 0, 0, 1, 277, 264)"><g clip-path="url(#998afd44e5)"><g clip-path="url(#9b77cb0529)"><path fill="#0c2647" d="M 0.839844 0.371094 L 62.714844 0.371094 L 62.714844 149.015625 L 0.839844 149.015625 Z M 0.839844 0.371094 " fill-opacity="1" fill-rule="nonzero"/></g></g></g></g><g transform="matrix(1, 0, 0, 1, 110, 163)"><g clip-path="url(#aecad922b5)"><g fill="#0c2647" fill-opacity="1"><g transform="translate(1.105188, 174.695863)"><g><path d="M 125.375 -133.9375 L 125.375 0 L 81.703125 0 L 81.703125 -48.21875 L 52.234375 -48.21875 L 52.234375 0 L 8.84375 0 L 8.84375 -133.9375 L 52.234375 -133.9375 L 52.234375 -85.71875 L 81.703125 -85.71875 L 81.703125 -133.9375 Z M 125.375 -133.9375 "/></g></g></g></g></g><g transform="matrix(1, 0, 0, 1, 18, 176)"><g clip-path="url(#33ad171745)"><g fill="#d6ecfa" fill-opacity="1"><g transform="translate(0.752704, 136.840385)"><g><path d="M 82.203125 -54.3125 C 94.773438 -50.257812 101.0625 -42.007812 101.0625 -29.5625 C 101.0625 -20.195312 97.144531 -12.925781 89.3125 -7.75 C 81.488281 -2.582031 70.3125 0 55.78125 0 L 6.921875 0 L 6.921875 -104.84375 L 61.4375 -104.84375 C 72.34375 -104.84375 80.726562 -102.289062 86.59375 -97.1875 C 92.46875 -92.082031 95.40625 -84.78125 95.40625 -75.28125 C 95.40625 -65.351562 91.003906 -58.363281 82.203125 -54.3125 Z M 40.46875 -65.21875 L 56.609375 -65.21875 C 61.785156 -65.21875 64.375 -67.3125 64.375 -71.5 C 64.375 -75.550781 61.785156 -77.925781 56.609375 -78.625 L 40.46875 -78.625 Z M 58.71875 -26.203125 C 64.863281 -26.203125 67.9375 -28.648438 67.9375 -33.546875 C 67.9375 -38.578125 64.863281 -41.09375 58.71875 -41.09375 L 40.46875 -41.09375 L 40.46875 -26.203125 Z M 58.71875 -26.203125 "/></g></g></g><g fill="#d6ecfa" fill-opacity="1"><g transform="translate(114.778633, 136.840385)"><g><path d="M 98.140625 -104.84375 L 98.140625 0 L 63.953125 0 L 63.953125 -37.75 L 40.890625 -37.75 L 40.890625 0 L 6.921875 0 L 6.921875 -104.84375 L 40.890625 -104.84375 L 40.890625 -67.09375 L 63.953125 -67.09375 L 63.953125 -104.84375 Z M 98.140625 -104.84375 "/></g></g></g></g></g></svg>