<svg xmlns="http://www.w3.org/2000/svg" xmlns:xlink="http://www.w3.org/1999/xlink" width="500" zoomAndPan="magnify" viewBox="0 0 375 374.999991" height="500" preserveAspectRatio="xMidYMid meet" version="1.0"><defs><g/><clipPath id="ef9bda909d"><path d="M 90.269531 118.683594 L 266.519531 118.683594 L 266.519531 236.433594 L 90.269531 236.433594 Z M 90.269531 118.683594 " clip-rule="nonzero"/></clipPath><clipPath id="5dfa95aa78"><path d="M 91.597656 190.613281 L 113.671875 190.613281 L 113.671875 258.480469 L 91.597656 258.480469 Z M 91.597656 190.613281 " clip-rule="nonzero"/></clipPath><clipPath id="a992777908"><path d="M 0.597656 0.613281 L 22.671875 0.613281 L 22.671875 68.480469 L 0.597656 68.480469 Z M 0.597656 0.613281 " clip-rule="nonzero"/></clipPath><clipPath id="3de3d66173"><rect x="0" width="23" y="0" height="69"/></clipPath><clipPath id="1278110214"><path d="M 249.8125 162.410156 L 259.898438 162.410156 L 259.898438 214.078125 L 249.8125 214.078125 Z M 249.8125 162.410156 " clip-rule="nonzero"/></clipPath><clipPath id="da9ad98750"><path d="M 0.8125 0.410156 L 10.898438 0.410156 L 10.898438 52.078125 L 0.8125 52.078125 Z M 0.8125 0.410156 " clip-rule="nonzero"/></clipPath><clipPath id="2b8ee1af21"><rect x="0" width="11" y="0" height="53"/></clipPath><clipPath id="34780f7152"><path d="M 15 15 L 112 15 L 112 112 L 15 112 Z M 15 15 " clip-rule="nonzero"/></clipPath><clipPath id="aac09439b5"><path d="M 0.933594 38.765625 L 88.261719 0.929688 L 126.101562 88.257812 L 38.769531 126.09375 Z M 0.933594 38.765625 " clip-rule="nonzero"/></clipPath><clipPath id="dd68f8b9cd"><path d="M 0.933594 38.765625 L 88.261719 0.929688 L 126.101562 88.257812 L 38.769531 126.09375 Z M 0.933594 38.765625 " clip-rule="nonzero"/></clipPath><clipPath id="709e0d15d3"><path d="M 27 27 L 100 27 L 100 100 L 27 100 Z M 27 27 " clip-rule="nonzero"/></clipPath><clipPath id="a279786b60"><path d="M 15.8125 44.648438 L 82.640625 15.695312 L 111.59375 82.519531 L 44.765625 111.472656 Z M 15.8125 44.648438 " clip-rule="nonzero"/></clipPath><clipPath id="a8a697ced4"><path d="M 15.8125 44.648438 L 82.640625 15.695312 L 111.59375 82.519531 L 44.765625 111.472656 Z M 15.8125 44.648438 " clip-rule="nonzero"/></clipPath><clipPath id="48fba748f6"><path d="M 20 20 L 107 20 L 107 107 L 20 107 Z M 20 20 " clip-rule="nonzero"/></clipPath><clipPath id="911b7370be"><path d="M 7.195312 41.242188 L 85.410156 7.351562 L 119.296875 85.570312 L 41.082031 119.457031 Z M 7.195312 41.242188 " clip-rule="nonzero"/></clipPath><clipPath id="a0b679192f"><path d="M 7.195312 41.242188 L 85.410156 7.351562 L 119.296875 85.570312 L 41.082031 119.457031 Z M 7.195312 41.242188 " clip-rule="nonzero"/></clipPath><clipPath id="185205b9e4"><path d="M 66 81 L 91 81 L 91 117 L 66 117 Z M 66 81 " clip-rule="nonzero"/></clipPath><clipPath id="bb4c2a3bab"><path d="M 66.933594 85.5625 L 77.195312 81.121094 L 90.59375 112.050781 L 80.335938 116.496094 Z M 66.933594 85.5625 " clip-rule="nonzero"/></clipPath><clipPath id="5dcf8afcba"><path d="M 0.71875 0 L 24.71875 0 L 24.71875 35.679688 L 0.71875 35.679688 Z M 0.71875 0 " clip-rule="nonzero"/></clipPath><clipPath id="3cfd7d2611"><path d="M 0.933594 4.5625 L 11.195312 0.121094 L 24.59375 31.050781 L 14.335938 35.496094 Z M 0.933594 4.5625 " clip-rule="nonzero"/></clipPath><clipPath id="0c977b4d16"><rect x="0" width="25" y="0" height="36"/></clipPath><clipPath id="ed2a69098f"><path d="M 69 83 L 89 83 L 89 114 L 69 114 Z M 69 83 " clip-rule="nonzero"/></clipPath><clipPath id="78f2a38e60"><path d="M 69.425781 86.761719 L 76.363281 83.753906 L 88.105469 110.851562 L 81.164062 113.855469 Z M 69.425781 86.761719 " clip-rule="nonzero"/></clipPath><clipPath id="636845f59c"><path d="M 0.359375 0.558594 L 19.320312 0.558594 L 19.320312 31 L 0.359375 31 Z M 0.359375 0.558594 " clip-rule="nonzero"/></clipPath><clipPath id="105c35c6b0"><path d="M 0.425781 3.761719 L 7.363281 0.753906 L 19.105469 27.851562 L 12.164062 30.855469 Z M 0.425781 3.761719 " clip-rule="nonzero"/></clipPath><clipPath id="b135b476f1"><rect x="0" width="20" y="0" height="31"/></clipPath><clipPath id="87c53e6b35"><path d="M 36 10 L 60 10 L 60 46 L 36 46 Z M 36 10 " clip-rule="nonzero"/></clipPath><clipPath id="e7eb127aa7"><path d="M 36.261719 15.046875 L 46.519531 10.601562 L 59.921875 41.53125 L 49.660156 45.976562 Z M 36.261719 15.046875 " clip-rule="nonzero"/></clipPath><clipPath id="380f5125ed"><path d="M 0.238281 0.601562 L 24 0.601562 L 24 36 L 0.238281 36 Z M 0.238281 0.601562 " clip-rule="nonzero"/></clipPath><clipPath id="ef447d8145"><path d="M 0.261719 5.046875 L 10.519531 0.601562 L 23.921875 31.53125 L 13.660156 35.976562 Z M 0.261719 5.046875 " clip-rule="nonzero"/></clipPath><clipPath id="c48285363a"><rect x="0" width="24" y="0" height="36"/></clipPath><clipPath id="01b43f1298"><path d="M 9 67 L 45 67 L 45 92 L 9 92 Z M 9 67 " clip-rule="nonzero"/></clipPath><clipPath id="a575ca7553"><path d="M 40.296875 67.882812 L 44.695312 78.160156 L 13.699219 91.414062 L 9.304688 81.132812 Z M 40.296875 67.882812 " clip-rule="nonzero"/></clipPath><clipPath id="a0126d1699"><path d="M 0.121094 0.71875 L 35.878906 0.71875 L 35.878906 24.480469 L 0.121094 24.480469 Z M 0.121094 0.71875 " clip-rule="nonzero"/></clipPath><clipPath id="5cfc067d0c"><path d="M 31.296875 0.882812 L 35.695312 11.160156 L 4.699219 24.414062 L 0.304688 14.132812 Z M 31.296875 0.882812 " clip-rule="nonzero"/></clipPath><clipPath id="1ecfec79c3"><rect x="0" width="36" y="0" height="25"/></clipPath><clipPath id="b86cf05ccb"><path d="M 38 12 L 58 12 L 58 44 L 38 44 Z M 38 12 " clip-rule="nonzero"/></clipPath><clipPath id="24d61bdc6f"><path d="M 38.75 15.960938 L 45.6875 12.953125 L 57.425781 40.046875 L 50.488281 43.054688 Z M 38.75 15.960938 " clip-rule="nonzero"/></clipPath><clipPath id="b7765da710"><path d="M 0.640625 0.761719 L 19.601562 0.761719 L 19.601562 31.238281 L 0.640625 31.238281 Z M 0.640625 0.761719 " clip-rule="nonzero"/></clipPath><clipPath id="c10b3df8f8"><path d="M 0.75 3.960938 L 7.6875 0.953125 L 19.425781 28.046875 L 12.488281 31.054688 Z M 0.75 3.960938 " clip-rule="nonzero"/></clipPath><clipPath id="50af69d261"><rect x="0" width="20" y="0" height="32"/></clipPath><clipPath id="3930b2fdc2"><path d="M 81 36 L 117 36 L 117 61 L 81 61 Z M 81 36 " clip-rule="nonzero"/></clipPath><clipPath id="7d7fc33748"><path d="M 112.390625 36.785156 L 116.789062 47.066406 L 85.792969 60.316406 L 81.398438 50.039062 Z M 112.390625 36.785156 " clip-rule="nonzero"/></clipPath><clipPath id="cf8e6977d2"><path d="M 0.359375 0.761719 L 35.878906 0.761719 L 35.878906 24.519531 L 0.359375 24.519531 Z M 0.359375 0.761719 " clip-rule="nonzero"/></clipPath><clipPath id="f9400f415f"><path d="M 31.390625 0.785156 L 35.789062 11.066406 L 4.792969 24.316406 L 0.398438 14.039062 Z M 31.390625 0.785156 " clip-rule="nonzero"/></clipPath><clipPath id="1b4c15bd34"><rect x="0" width="36" y="0" height="25"/></clipPath><clipPath id="201bad1c3c"><path d="M 83 39 L 115 39 L 115 58 L 83 58 Z M 83 39 " clip-rule="nonzero"/></clipPath><clipPath id="3d0a0eecd0"><path d="M 86.976562 57.820312 L 83.96875 50.878906 L 111.066406 39.140625 L 114.070312 46.082031 Z M 86.976562 57.820312 " clip-rule="nonzero"/></clipPath><clipPath id="035620d170"><path d="M 0.761719 0 L 31.238281 0 L 31.238281 18.878906 L 0.761719 18.878906 Z M 0.761719 0 " clip-rule="nonzero"/></clipPath><clipPath id="62ec04047a"><path d="M 3.976562 18.820312 L 0.96875 11.878906 L 28.066406 0.140625 L 31.070312 7.082031 Z M 3.976562 18.820312 " clip-rule="nonzero"/></clipPath><clipPath id="d1e182e290"><rect x="0" width="32" y="0" height="19"/></clipPath><clipPath id="7b7320029f"><path d="M 11 69 L 43 69 L 43 89 L 11 89 Z M 11 69 " clip-rule="nonzero"/></clipPath><clipPath id="195c70b29d"><path d="M 14.980469 88.609375 L 11.972656 81.667969 L 39.066406 69.929688 L 42.074219 76.867188 Z M 14.980469 88.609375 " clip-rule="nonzero"/></clipPath><clipPath id="d8b2db6b63"><path d="M 0.761719 0.878906 L 31.238281 0.878906 L 31.238281 19.839844 L 0.761719 19.839844 Z M 0.761719 0.878906 " clip-rule="nonzero"/></clipPath><clipPath id="9406ba66be"><path d="M 3.980469 19.609375 L 0.972656 12.667969 L 28.066406 0.929688 L 31.074219 7.867188 Z M 3.980469 19.609375 " clip-rule="nonzero"/></clipPath><clipPath id="24b9cf2837"><rect x="0" width="32" y="0" height="20"/></clipPath><clipPath id="fa421cf7d7"><rect x="0" width="126" y="0" height="127"/></clipPath></defs><rect x="-37.5" width="450" fill="#ffffff" y="-37.499999" height="449.999989" fill-opacity="1"/><rect x="-37.5" width="450" fill="#0c2647" y="-37.499999" height="449.999989" fill-opacity="1"/><g clip-path="url(#ef9bda909d)"><path fill="#d6ecfa" d="M 158.074219 123.75 L 188.859375 151.671875 L 193.625 151.671875 L 193.625 130.125 L 224.148438 130.125 L 224.148438 151.671875 L 266.351562 151.671875 L 266.351562 163.011719 L 212.808594 163.011719 L 212.808594 141.464844 L 204.964844 141.464844 L 204.964844 163.011719 L 184.558594 163.011719 L 184.523438 163.050781 L 184.480469 163.011719 L 184.363281 163.011719 L 184.363281 162.90625 L 153.246094 134.679688 L 107.210938 184.082031 L 107.210938 236.253906 L 95.871094 236.253906 L 95.871094 190.84375 L 90.269531 185.625 L 147.066406 124.679688 L 152.496094 118.691406 L 152.574219 118.765625 L 152.644531 118.691406 Z M 158.074219 123.75 " fill-opacity="1" fill-rule="evenodd"/></g><g clip-path="url(#5dfa95aa78)"><g transform="matrix(1, 0, 0, 1, 91, 190)"><g clip-path="url(#3de3d66173)"><g clip-path="url(#a992777908)"><path fill="#0c2647" d="M 0.597656 0.613281 L 22.671875 0.613281 L 22.671875 68.46875 L 0.597656 68.46875 Z M 0.597656 0.613281 " fill-opacity="1" fill-rule="nonzero"/></g></g></g></g><g clip-path="url(#1278110214)"><g transform="matrix(1, 0, 0, 1, 249, 162)"><g clip-path="url(#2b8ee1af21)"><g clip-path="url(#da9ad98750)"><path fill="#d6ecfa" d="M 0.8125 0.410156 L 10.898438 0.410156 L 10.898438 52.089844 L 0.8125 52.089844 Z M 0.8125 0.410156 " fill-opacity="1" fill-rule="nonzero"/></g></g></g></g><g transform="matrix(1, 0, 0, 1, 144, 83)"><g clip-path="url(#fa421cf7d7)"><g clip-path="url(#34780f7152)"><g clip-path="url(#aac09439b5)"><g clip-path="url(#dd68f8b9cd)"><path fill="#0c2647" d="M 44.558594 19.863281 C 20.457031 30.308594 9.390625 58.285156 19.835938 82.386719 C 30.277344 106.488281 58.257812 117.554688 82.359375 107.109375 C 106.460938 96.667969 117.523438 68.6875 107.082031 44.585938 C 96.636719 20.484375 68.660156 9.421875 44.558594 19.863281 Z M 78.578125 98.386719 C 59.296875 106.738281 36.914062 97.890625 28.558594 78.609375 C 20.207031 59.328125 29.054688 36.941406 48.335938 28.589844 C 67.617188 20.234375 90.003906 29.085938 98.355469 48.367188 C 106.710938 67.648438 97.859375 90.03125 78.578125 98.386719 Z M 78.578125 98.386719 " fill-opacity="1" fill-rule="nonzero"/></g></g></g><g clip-path="url(#709e0d15d3)"><g clip-path="url(#a279786b60)"><g clip-path="url(#a8a697ced4)"><path fill="#0c2647" d="M 49.054688 30.246094 C 30.6875 38.203125 22.257812 59.523438 30.214844 77.886719 C 38.171875 96.253906 59.492188 104.683594 77.859375 96.726562 C 96.222656 88.769531 104.65625 67.449219 96.699219 49.085938 C 88.738281 30.71875 67.421875 22.289062 49.054688 30.246094 Z M 74.976562 90.078125 C 60.285156 96.445312 43.230469 89.699219 36.863281 75.007812 C 30.496094 60.316406 37.242188 43.257812 51.933594 36.894531 C 66.628906 30.527344 83.683594 37.273438 90.050781 51.964844 C 96.414062 66.65625 89.671875 83.714844 74.976562 90.078125 Z M 74.976562 90.078125 " fill-opacity="1" fill-rule="nonzero"/></g></g></g><g clip-path="url(#48fba748f6)"><g clip-path="url(#911b7370be)"><g clip-path="url(#a0b679192f)"><path fill="#e22626" d="M 46.449219 24.230469 C 24.761719 33.628906 14.804688 58.808594 24.203125 80.496094 C 33.597656 102.1875 58.777344 112.144531 80.46875 102.746094 C 102.15625 93.347656 112.113281 68.167969 102.714844 46.480469 C 93.316406 24.792969 68.140625 14.835938 46.449219 24.230469 Z M 77.066406 94.894531 C 59.714844 102.410156 39.570312 94.445312 32.054688 77.09375 C 24.535156 59.742188 32.5 39.601562 49.851562 32.082031 C 67.203125 24.566406 87.347656 32.53125 94.863281 49.882812 C 102.382812 67.234375 94.417969 87.375 77.066406 94.894531 Z M 77.066406 94.894531 " fill-opacity="1" fill-rule="nonzero"/></g></g></g><g clip-path="url(#185205b9e4)"><g clip-path="url(#bb4c2a3bab)"><g transform="matrix(1, 0, 0, 1, 66, 81)"><g clip-path="url(#0c977b4d16)"><g clip-path="url(#5dcf8afcba)"><g clip-path="url(#3cfd7d2611)"><path fill="#0c2647" d="M 0.933594 4.5625 L 11.195312 0.121094 L 24.597656 31.058594 L 14.339844 35.503906 Z M 0.933594 4.5625 " fill-opacity="1" fill-rule="nonzero"/></g></g></g></g></g></g><g clip-path="url(#ed2a69098f)"><g clip-path="url(#78f2a38e60)"><g transform="matrix(1, 0, 0, 1, 69, 83)"><g clip-path="url(#b135b476f1)"><g clip-path="url(#636845f59c)"><g clip-path="url(#105c35c6b0)"><path fill="#e22626" d="M 0.425781 3.761719 L 7.363281 0.753906 L 19.097656 27.835938 L 12.160156 30.84375 Z M 0.425781 3.761719 " fill-opacity="1" fill-rule="nonzero"/></g></g></g></g></g></g><g clip-path="url(#87c53e6b35)"><g clip-path="url(#e7eb127aa7)"><g transform="matrix(1, 0, 0, 1, 36, 10)"><g clip-path="url(#c48285363a)"><g clip-path="url(#380f5125ed)"><g clip-path="url(#ef447d8145)"><path fill="#0c2647" d="M 0.261719 5.046875 L 10.519531 0.601562 L 23.925781 31.542969 L 13.664062 35.984375 Z M 0.261719 5.046875 " fill-opacity="1" fill-rule="nonzero"/></g></g></g></g></g></g><g clip-path="url(#01b43f1298)"><g clip-path="url(#a575ca7553)"><g transform="matrix(1, 0, 0, 1, 9, 67)"><g clip-path="url(#1ecfec79c3)"><g clip-path="url(#a0126d1699)"><g clip-path="url(#5cfc067d0c)"><path fill="#0c2647" d="M 31.296875 0.882812 L 35.695312 11.160156 L 4.691406 24.417969 L 0.296875 14.136719 Z M 31.296875 0.882812 " fill-opacity="1" fill-rule="nonzero"/></g></g></g></g></g></g><g clip-path="url(#b86cf05ccb)"><g clip-path="url(#24d61bdc6f)"><g transform="matrix(1, 0, 0, 1, 38, 12)"><g clip-path="url(#50af69d261)"><g clip-path="url(#b7765da710)"><g clip-path="url(#c10b3df8f8)"><path fill="#e22626" d="M 0.75 3.960938 L 7.6875 0.953125 L 19.421875 28.035156 L 12.480469 31.042969 Z M 0.75 3.960938 " fill-opacity="1" fill-rule="nonzero"/></g></g></g></g></g></g><g clip-path="url(#3930b2fdc2)"><g clip-path="url(#7d7fc33748)"><g transform="matrix(1, 0, 0, 1, 81, 36)"><g clip-path="url(#1b4c15bd34)"><g clip-path="url(#cf8e6977d2)"><g clip-path="url(#f9400f415f)"><path fill="#0c2647" d="M 31.390625 0.785156 L 35.789062 11.066406 L 4.785156 24.320312 L 0.390625 14.042969 Z M 31.390625 0.785156 " fill-opacity="1" fill-rule="nonzero"/></g></g></g></g></g></g><g clip-path="url(#201bad1c3c)"><g clip-path="url(#3d0a0eecd0)"><g transform="matrix(1, 0, 0, 1, 83, 39)"><g clip-path="url(#d1e182e290)"><g clip-path="url(#035620d170)"><g clip-path="url(#62ec04047a)"><path fill="#e22626" d="M 3.976562 18.820312 L 0.96875 11.878906 L 28.050781 0.148438 L 31.058594 7.085938 Z M 3.976562 18.820312 " fill-opacity="1" fill-rule="nonzero"/></g></g></g></g></g></g><g clip-path="url(#7b7320029f)"><g clip-path="url(#195c70b29d)"><g transform="matrix(1, 0, 0, 1, 11, 69)"><g clip-path="url(#24b9cf2837)"><g clip-path="url(#d8b2db6b63)"><g clip-path="url(#9406ba66be)"><path fill="#e22626" d="M 3.980469 19.609375 L 0.972656 12.667969 L 28.054688 0.933594 L 31.0625 7.875 Z M 3.980469 19.609375 " fill-opacity="1" fill-rule="nonzero"/></g></g></g></g></g></g></g></g><g fill="#d6ecfa" fill-opacity="1"><g transform="translate(181.515199, 233.547671)"><g><path d="M 8.046875 0.390625 C 6.128906 0.390625 4.617188 -0.210938 3.515625 -1.421875 C 2.410156 -2.640625 1.859375 -4.273438 1.859375 -6.328125 L 1.859375 -14.828125 L 6.15625 -14.828125 L 6.15625 -6.75 C 6.15625 -5.65625 6.414062 -4.804688 6.9375 -4.203125 C 7.457031 -3.609375 8.164062 -3.3125 9.0625 -3.3125 C 10.039062 -3.3125 10.820312 -3.648438 11.40625 -4.328125 C 11.988281 -5.003906 12.28125 -5.925781 12.28125 -7.09375 L 12.28125 -14.828125 L 16.578125 -14.828125 L 16.578125 0 L 13.390625 0 L 12.9375 -1.671875 C 12.351562 -0.972656 11.632812 -0.453125 10.78125 -0.109375 C 9.9375 0.222656 9.023438 0.390625 8.046875 0.390625 Z M 8.046875 0.390625 "/></g></g></g><g fill="#d6ecfa" fill-opacity="1"><g transform="translate(201.737148, 233.547671)"><g><path d="M 2.140625 0 L 2.140625 -14.828125 L 5.34375 -14.828125 L 5.796875 -13.171875 C 6.390625 -13.859375 7.113281 -14.375 7.96875 -14.71875 C 8.832031 -15.0625 9.753906 -15.234375 10.734375 -15.234375 C 12.671875 -15.234375 14.191406 -14.628906 15.296875 -13.421875 C 16.398438 -12.210938 16.953125 -10.582031 16.953125 -8.53125 L 16.953125 0 L 12.65625 0 L 12.65625 -8.078125 C 12.65625 -9.171875 12.394531 -10.019531 11.875 -10.625 C 11.363281 -11.238281 10.644531 -11.546875 9.71875 -11.546875 C 8.738281 -11.546875 7.945312 -11.207031 7.34375 -10.53125 C 6.738281 -9.851562 6.4375 -8.929688 6.4375 -7.765625 L 6.4375 0 Z M 2.140625 0 "/></g></g></g><g fill="#d6ecfa" fill-opacity="1"><g transform="translate(221.620158, 233.547671)"><g><path d="M 9.296875 0 C 7.410156 0 5.960938 -0.484375 4.953125 -1.453125 C 3.953125 -2.421875 3.453125 -3.8125 3.453125 -5.625 L 3.453125 -11.328125 L 0.5625 -11.328125 L 0.5625 -14.828125 L 1.890625 -14.828125 C 2.703125 -14.828125 3.253906 -14.957031 3.546875 -15.21875 C 3.835938 -15.488281 4.039062 -16 4.15625 -16.75 L 4.40625 -18.671875 L 7.734375 -18.671875 L 7.734375 -14.828125 L 11.8125 -14.828125 L 11.8125 -11.328125 L 7.734375 -11.328125 L 7.734375 -6.265625 C 7.734375 -4.578125 8.5625 -3.734375 10.21875 -3.734375 L 12 -3.734375 L 12 0 Z M 9.296875 0 "/></g></g></g><g fill="#d6ecfa" fill-opacity="1"><g transform="translate(235.741731, 233.547671)"><g><path d="M 9.15625 0.390625 C 7.570312 0.390625 6.171875 0.0625 4.953125 -0.59375 C 3.742188 -1.25 2.800781 -2.164062 2.125 -3.34375 C 1.445312 -4.519531 1.109375 -5.882812 1.109375 -7.4375 C 1.109375 -8.976562 1.445312 -10.332031 2.125 -11.5 C 2.8125 -12.664062 3.765625 -13.578125 4.984375 -14.234375 C 6.203125 -14.898438 7.609375 -15.234375 9.203125 -15.234375 C 10.898438 -15.234375 12.363281 -14.851562 13.59375 -14.09375 C 14.832031 -13.34375 15.773438 -12.289062 16.421875 -10.9375 C 17.078125 -9.582031 17.359375 -8 17.265625 -6.1875 L 5.375 -6.1875 C 5.570312 -5.164062 6.019531 -4.382812 6.71875 -3.84375 C 7.414062 -3.3125 8.253906 -3.046875 9.234375 -3.046875 C 9.953125 -3.046875 10.609375 -3.179688 11.203125 -3.453125 C 11.796875 -3.734375 12.269531 -4.117188 12.625 -4.609375 L 16.984375 -4.609375 C 16.335938 -3.046875 15.328125 -1.820312 13.953125 -0.9375 C 12.578125 -0.0507812 10.976562 0.390625 9.15625 0.390625 Z M 5.390625 -8.90625 L 13.109375 -8.90625 C 12.859375 -9.800781 12.398438 -10.507812 11.734375 -11.03125 C 11.066406 -11.550781 10.234375 -11.8125 9.234375 -11.8125 C 8.296875 -11.8125 7.484375 -11.550781 6.796875 -11.03125 C 6.109375 -10.507812 5.640625 -9.800781 5.390625 -8.90625 Z M 5.390625 -8.90625 "/></g></g></g><g fill="#d6ecfa" fill-opacity="1"><g transform="translate(255.568299, 233.547671)"><g><path d="M 2.140625 0 L 2.140625 -14.828125 L 5.34375 -14.828125 L 5.90625 -12.859375 C 6.394531 -13.554688 6.992188 -14.054688 7.703125 -14.359375 C 8.421875 -14.671875 9.328125 -14.828125 10.421875 -14.828125 L 12.03125 -14.828125 L 12.03125 -10.9375 L 10.390625 -10.9375 C 9.171875 -10.9375 8.207031 -10.601562 7.5 -9.9375 C 6.789062 -9.28125 6.4375 -8.148438 6.4375 -6.546875 L 6.4375 0 Z M 2.140625 0 "/></g></g></g><g fill="#d6ecfa" fill-opacity="1"><g transform="translate(94.175432, 236.203021)"><g><path d="M 31.796875 -21.015625 C 36.660156 -19.441406 39.09375 -16.25 39.09375 -11.4375 C 39.09375 -7.8125 37.578125 -5 34.546875 -3 C 31.523438 -1 27.203125 0 21.578125 0 L 2.671875 0 L 2.671875 -40.5625 L 23.765625 -40.5625 C 27.984375 -40.5625 31.226562 -39.570312 33.5 -37.59375 C 35.769531 -35.625 36.90625 -32.800781 36.90625 -29.125 C 36.90625 -25.28125 35.203125 -22.578125 31.796875 -21.015625 Z M 15.65625 -25.234375 L 21.90625 -25.234375 C 23.90625 -25.234375 24.90625 -26.039062 24.90625 -27.65625 C 24.90625 -29.226562 23.90625 -30.148438 21.90625 -30.421875 L 15.65625 -30.421875 Z M 22.71875 -10.140625 C 25.09375 -10.140625 26.28125 -11.085938 26.28125 -12.984375 C 26.28125 -14.929688 25.09375 -15.90625 22.71875 -15.90625 L 15.65625 -15.90625 L 15.65625 -10.140625 Z M 22.71875 -10.140625 "/></g></g></g><g fill="#d6ecfa" fill-opacity="1"><g transform="translate(138.283007, 236.203021)"><g><path d="M 37.96875 -40.5625 L 37.96875 0 L 24.734375 0 L 24.734375 -14.59375 L 15.8125 -14.59375 L 15.8125 0 L 2.671875 0 L 2.671875 -40.5625 L 15.8125 -40.5625 L 15.8125 -25.953125 L 24.734375 -25.953125 L 24.734375 -40.5625 Z M 37.96875 -40.5625 "/></g></g></g></svg>