<svg xmlns="http://www.w3.org/2000/svg" xmlns:xlink="http://www.w3.org/1999/xlink" width="500" zoomAndPan="magnify" viewBox="0 0 375 374.999991" height="500" preserveAspectRatio="xMidYMid meet" version="1.0"><defs><g/><clipPath id="5e58953151"><path d="M 21.617188 74.640625 L 375 74.640625 L 375 375 L 21.617188 375 Z M 21.617188 74.640625 " clip-rule="nonzero"/></clipPath><clipPath id="acd8d18386"><path d="M 228 0 L 375 0 L 375 332 L 228 332 Z M 228 0 " clip-rule="nonzero"/></clipPath><clipPath id="28138202b5"><path d="M 228.957031 94.15625 L 380.902344 -68.125 L 634.160156 169.007812 L 482.21875 331.285156 Z M 228.957031 94.15625 " clip-rule="nonzero"/></clipPath><clipPath id="e81a3efef2"><path d="M 0.71875 0 L 147 0 L 147 331.441406 L 0.71875 331.441406 Z M 0.71875 0 " clip-rule="nonzero"/></clipPath><clipPath id="1e450f3960"><path d="M 0.957031 94.15625 L 152.902344 -68.125 L 406.160156 169.007812 L 254.21875 331.285156 Z M 0.957031 94.15625 " clip-rule="nonzero"/></clipPath><clipPath id="dee792edbb"><rect x="0" width="147" y="0" height="332"/></clipPath><clipPath id="d7fb5f4cf3"><path d="M 0 0 L 213 0 L 213 322 L 0 322 Z M 0 0 " clip-rule="nonzero"/></clipPath><clipPath id="1318e58cba"><path d="M 50.886719 -79.628906 L 212.289062 73.246094 L -23.207031 321.878906 L -184.609375 169.003906 Z M 50.886719 -79.628906 " clip-rule="nonzero"/></clipPath><clipPath id="cd3420449e"><path d="M 0 0 L 212.398438 0 L 212.398438 322 L 0 322 Z M 0 0 " clip-rule="nonzero"/></clipPath><clipPath id="2ffc13bf5e"><path d="M 50.886719 -79.628906 L 212.289062 73.246094 L -23.207031 321.878906 L -184.609375 169.003906 Z M 50.886719 -79.628906 " clip-rule="nonzero"/></clipPath><clipPath id="76287d2ff2"><rect x="0" width="213" y="0" height="322"/></clipPath><clipPath id="7389ca4d52"><path d="M 34 36 L 240 36 L 240 242 L 34 242 Z M 34 36 " clip-rule="nonzero"/></clipPath><clipPath id="f2704f5647"><path d="M 0.804688 90.628906 L 185.667969 2.933594 L 273.367188 187.792969 L 88.503906 275.492188 Z M 0.804688 90.628906 " clip-rule="nonzero"/></clipPath><clipPath id="9358550d41"><path d="M 0.804688 90.628906 L 185.667969 2.933594 L 273.367188 187.792969 L 88.503906 275.492188 Z M 0.804688 90.628906 " clip-rule="nonzero"/></clipPath><clipPath id="edd7956d94"><path d="M 59 61 L 215 61 L 215 218 L 59 218 Z M 59 61 " clip-rule="nonzero"/></clipPath><clipPath id="d2be95402d"><path d="M 33.207031 102.179688 L 174.667969 35.070312 L 241.773438 176.53125 L 100.316406 243.636719 Z M 33.207031 102.179688 " clip-rule="nonzero"/></clipPath><clipPath id="86066c4000"><path d="M 33.207031 102.179688 L 174.667969 35.070312 L 241.773438 176.53125 L 100.316406 243.636719 Z M 33.207031 102.179688 " clip-rule="nonzero"/></clipPath><clipPath id="9db279dcf1"><path d="M 44 47 L 229 47 L 229 232 L 44 232 Z M 44 47 " clip-rule="nonzero"/></clipPath><clipPath id="3d9383a8da"><path d="M 14.4375 95.492188 L 180.007812 16.945312 L 258.554688 182.515625 L 92.984375 261.0625 Z M 14.4375 95.492188 " clip-rule="nonzero"/></clipPath><clipPath id="e0d1f4476c"><path d="M 14.4375 95.492188 L 180.007812 16.945312 L 258.554688 182.515625 L 92.984375 261.0625 Z M 14.4375 95.492188 " clip-rule="nonzero"/></clipPath><clipPath id="6f1e0e9a38"><path d="M 146 176 L 199 176 L 199 252 L 146 252 Z M 146 176 " clip-rule="nonzero"/></clipPath><clipPath id="47a7b227ab"><path d="M 146.046875 186.34375 L 167.765625 176.042969 L 198.824219 241.515625 L 177.109375 251.816406 Z M 146.046875 186.34375 " clip-rule="nonzero"/></clipPath><clipPath id="11cd389711"><path d="M 0 0.0390625 L 52.960938 0.0390625 L 52.960938 75.878906 L 0 75.878906 Z M 0 0.0390625 " clip-rule="nonzero"/></clipPath><clipPath id="fe02205644"><path d="M 0.046875 10.34375 L 21.765625 0.0429688 L 52.824219 65.515625 L 31.109375 75.816406 Z M 0.046875 10.34375 " clip-rule="nonzero"/></clipPath><clipPath id="2b614c9972"><rect x="0" width="53" y="0" height="76"/></clipPath><clipPath id="56ef2d9509"><path d="M 151 181 L 194 181 L 194 247 L 151 247 Z M 151 181 " clip-rule="nonzero"/></clipPath><clipPath id="267ba286e5"><path d="M 151.484375 188.734375 L 166.175781 181.765625 L 193.382812 239.121094 L 178.695312 246.089844 Z M 151.484375 188.734375 " clip-rule="nonzero"/></clipPath><clipPath id="47ddda5b59"><path d="M 0.441406 0.558594 L 42.441406 0.558594 L 42.441406 65.121094 L 0.441406 65.121094 Z M 0.441406 0.558594 " clip-rule="nonzero"/></clipPath><clipPath id="5dfbf52137"><path d="M 0.484375 7.734375 L 15.175781 0.765625 L 42.382812 58.121094 L 27.695312 65.089844 Z M 0.484375 7.734375 " clip-rule="nonzero"/></clipPath><clipPath id="f31e243d98"><rect x="0" width="43" y="0" height="66"/></clipPath><clipPath id="b3a3b93013"><path d="M 74 26 L 128 26 L 128 103 L 74 103 Z M 74 26 " clip-rule="nonzero"/></clipPath><clipPath id="ef22a816c5"><path d="M 74.96875 37.082031 L 96.6875 26.78125 L 127.75 92.253906 L 106.03125 102.554688 Z M 74.96875 37.082031 " clip-rule="nonzero"/></clipPath><clipPath id="54d38bba60"><path d="M 0.878906 0.761719 L 53.921875 0.761719 L 53.921875 76.601562 L 0.878906 76.601562 Z M 0.878906 0.761719 " clip-rule="nonzero"/></clipPath><clipPath id="0aaa66d6f8"><path d="M 0.96875 11.082031 L 22.6875 0.78125 L 53.75 66.253906 L 32.03125 76.554688 Z M 0.96875 11.082031 " clip-rule="nonzero"/></clipPath><clipPath id="40e4588195"><rect x="0" width="54" y="0" height="77"/></clipPath><clipPath id="e9180a4c80"><path d="M 21 150 L 98 150 L 98 203 L 21 203 Z M 21 150 " clip-rule="nonzero"/></clipPath><clipPath id="9f2db47799"><path d="M 87.515625 150.304688 L 97.714844 172.070312 L 32.09375 202.816406 L 21.894531 181.050781 Z M 87.515625 150.304688 " clip-rule="nonzero"/></clipPath><clipPath id="1aaade99d6"><path d="M 0.839844 0.121094 L 76.921875 0.121094 L 76.921875 52.921875 L 0.839844 52.921875 Z M 0.839844 0.121094 " clip-rule="nonzero"/></clipPath><clipPath id="4512b1a66b"><path d="M 66.515625 0.304688 L 76.714844 22.070312 L 11.09375 52.816406 L 0.894531 31.050781 Z M 66.515625 0.304688 " clip-rule="nonzero"/></clipPath><clipPath id="0dde1a112f"><rect x="0" width="77" y="0" height="53"/></clipPath><clipPath id="a74d9b8bc3"><path d="M 80 31 L 123 31 L 123 97 L 80 97 Z M 80 31 " clip-rule="nonzero"/></clipPath><clipPath id="18f4f2a558"><path d="M 80.382812 38.859375 L 95.074219 31.886719 L 122.28125 89.242188 L 107.589844 96.210938 Z M 80.382812 38.859375 " clip-rule="nonzero"/></clipPath><clipPath id="bb608f1f43"><path d="M 0.160156 0.800781 L 42.398438 0.800781 L 42.398438 65.359375 L 0.160156 65.359375 Z M 0.160156 0.800781 " clip-rule="nonzero"/></clipPath><clipPath id="37c596b7b5"><path d="M 0.382812 7.859375 L 15.074219 0.886719 L 42.28125 58.242188 L 27.589844 65.210938 Z M 0.382812 7.859375 " clip-rule="nonzero"/></clipPath><clipPath id="8400577719"><rect x="0" width="43" y="0" height="66"/></clipPath><clipPath id="84d6578c82"><path d="M 174 78 L 251 78 L 251 131 L 174 131 Z M 174 78 " clip-rule="nonzero"/></clipPath><clipPath id="f316481997"><path d="M 240.140625 78.203125 L 250.339844 99.96875 L 184.714844 130.71875 L 174.519531 108.953125 Z M 240.140625 78.203125 " clip-rule="nonzero"/></clipPath><clipPath id="5bbf5237ee"><path d="M 0.480469 0.121094 L 76.558594 0.121094 L 76.558594 52.921875 L 0.480469 52.921875 Z M 0.480469 0.121094 " clip-rule="nonzero"/></clipPath><clipPath id="a0716b780d"><path d="M 66.140625 0.203125 L 76.339844 21.96875 L 10.714844 52.71875 L 0.519531 30.953125 Z M 66.140625 0.203125 " clip-rule="nonzero"/></clipPath><clipPath id="0dee39f756"><rect x="0" width="77" y="0" height="53"/></clipPath><clipPath id="fb01750c8e"><path d="M 180 83 L 245 83 L 245 126 L 180 126 Z M 180 83 " clip-rule="nonzero"/></clipPath><clipPath id="51d2f34214"><path d="M 187.074219 125.265625 L 180.105469 110.574219 L 237.460938 83.367188 L 244.429688 98.054688 Z M 187.074219 125.265625 " clip-rule="nonzero"/></clipPath><clipPath id="fc9dc8e557"><path d="M 0 0.160156 L 64.558594 0.160156 L 64.558594 42.398438 L 0 42.398438 Z M 0 0.160156 " clip-rule="nonzero"/></clipPath><clipPath id="61a8bb6ef5"><path d="M 7.074219 42.265625 L 0.105469 27.574219 L 57.460938 0.367188 L 64.429688 15.054688 Z M 7.074219 42.265625 " clip-rule="nonzero"/></clipPath><clipPath id="567f27f973"><rect x="0" width="65" y="0" height="43"/></clipPath><clipPath id="7cda2e1082"><path d="M 27 154 L 92 154 L 92 197 L 27 197 Z M 27 154 " clip-rule="nonzero"/></clipPath><clipPath id="07a1f1249f"><path d="M 34.636719 196.695312 L 27.667969 182.003906 L 85.023438 154.792969 L 91.992188 169.484375 Z M 34.636719 196.695312 " clip-rule="nonzero"/></clipPath><clipPath id="a46b4df987"><path d="M 0.601562 0.679688 L 65 0.679688 L 65 42.921875 L 0.601562 42.921875 Z M 0.601562 0.679688 " clip-rule="nonzero"/></clipPath><clipPath id="9c73189452"><path d="M 7.636719 42.695312 L 0.667969 28.003906 L 58.023438 0.792969 L 64.992188 15.484375 Z M 7.636719 42.695312 " clip-rule="nonzero"/></clipPath><clipPath id="0e187f0b25"><rect x="0" width="65" y="0" height="43"/></clipPath><clipPath id="677f87fbf8"><rect x="0" width="276" y="0" height="279"/></clipPath><clipPath id="55e289af11"><path d="M 21.617188 304.101562 L 86.980469 304.101562 L 86.980469 375 L 21.617188 375 Z M 21.617188 304.101562 " clip-rule="nonzero"/></clipPath><clipPath id="497920f092"><path d="M 0.617188 0.101562 L 65.980469 0.101562 L 65.980469 71 L 0.617188 71 Z M 0.617188 0.101562 " clip-rule="nonzero"/></clipPath><clipPath id="067be72550"><rect x="0" width="66" y="0" height="71"/></clipPath><clipPath id="c14265e3a2"><rect x="0" width="134" y="0" height="181"/></clipPath><clipPath id="563789c6cf"><rect x="0" width="242" y="0" height="167"/></clipPath></defs><rect x="-37.5" width="450" fill="#ffffff" y="-37.499999" height="449.999989" fill-opacity="1"/><rect x="-37.5" width="450" fill="#0c2647" y="-37.499999" height="449.999989" fill-opacity="1"/><g clip-path="url(#5e58953151)"><path fill="#d6ecfa" d="M 224.597656 89.8125 L 316.757812 173.402344 L 331.027344 173.402344 L 331.027344 108.902344 L 422.410156 108.902344 L 422.410156 173.402344 L 548.746094 173.402344 L 548.746094 207.351562 L 388.460938 207.351562 L 388.460938 142.851562 L 364.976562 142.851562 L 364.976562 207.351562 L 303.886719 207.351562 L 303.78125 207.46875 L 303.652344 207.351562 L 303.304688 207.351562 L 303.304688 207.035156 L 210.140625 122.535156 L 72.328125 270.425781 L 72.328125 426.609375 L 38.378906 426.609375 L 38.378906 290.667969 L 21.617188 275.046875 L 191.644531 92.589844 L 207.898438 74.667969 L 208.140625 74.886719 L 208.34375 74.667969 Z M 224.597656 89.8125 " fill-opacity="1" fill-rule="evenodd"/></g><g clip-path="url(#acd8d18386)"><g clip-path="url(#28138202b5)"><g transform="matrix(1, 0, 0, 1, 228, 0)"><g clip-path="url(#dee792edbb)"><g clip-path="url(#e81a3efef2)"><g clip-path="url(#1e450f3960)"><path fill="#0c2647" d="M 0.957031 94.15625 L 152.902344 -68.125 L 406.464844 169.289062 L 254.519531 331.566406 Z M 0.957031 94.15625 " fill-opacity="1" fill-rule="nonzero"/></g></g></g></g></g></g><g clip-path="url(#d7fb5f4cf3)"><g clip-path="url(#1318e58cba)"><g transform="matrix(1, 0, 0, 1, 0, 0)"><g clip-path="url(#76287d2ff2)"><g clip-path="url(#cd3420449e)"><g clip-path="url(#2ffc13bf5e)"><path fill="#0c2647" d="M 50.886719 -79.628906 L 212.289062 73.246094 L -22.996094 321.65625 L -184.398438 168.78125 Z M 50.886719 -79.628906 " fill-opacity="1" fill-rule="nonzero"/></g></g></g></g></g></g><g transform="matrix(1, 0, 0, 1, 0, 39)"><g clip-path="url(#677f87fbf8)"><g clip-path="url(#7389ca4d52)"><g clip-path="url(#f2704f5647)"><g clip-path="url(#9358550d41)"><path fill="#0c2647" d="M 93.148438 46.824219 C 42.128906 71.027344 20.410156 131.953125 44.613281 182.972656 C 68.816406 233.992188 129.746094 255.710938 180.765625 231.507812 C 231.785156 207.304688 253.503906 146.378906 229.300781 95.359375 C 205.09375 44.339844 144.167969 22.621094 93.148438 46.824219 Z M 172.003906 213.039062 C 131.1875 232.402344 82.445312 215.027344 63.082031 174.210938 C 43.71875 133.394531 61.09375 84.65625 101.910156 65.292969 C 142.726562 45.929688 191.46875 63.304688 210.832031 104.121094 C 230.195312 144.933594 212.816406 193.675781 172.003906 213.039062 Z M 172.003906 213.039062 " fill-opacity="1" fill-rule="nonzero"/></g></g></g><g clip-path="url(#edd7956d94)"><g clip-path="url(#d2be95402d)"><g clip-path="url(#86066c4000)"><path fill="#0c2647" d="M 103.574219 68.796875 C 64.695312 87.242188 48.144531 133.667969 66.589844 172.542969 C 85.03125 211.421875 131.457031 227.972656 170.335938 209.527344 C 209.210938 191.085938 225.761719 144.660156 207.320312 105.78125 C 188.875 66.90625 142.449219 50.355469 103.574219 68.796875 Z M 163.660156 195.457031 C 132.558594 210.210938 95.417969 196.96875 80.660156 165.867188 C 65.90625 134.765625 79.148438 97.625 110.25 82.871094 C 141.351562 68.117188 178.492188 81.355469 193.246094 112.457031 C 208 143.558594 194.761719 180.699219 163.660156 195.457031 Z M 163.660156 195.457031 " fill-opacity="1" fill-rule="nonzero"/></g></g></g><g clip-path="url(#9db279dcf1)"><g clip-path="url(#3d9383a8da)"><g clip-path="url(#e0d1f4476c)"><path fill="#e22626" d="M 97.535156 56.066406 C 51.625 77.847656 32.078125 132.679688 53.859375 178.589844 C 75.640625 224.503906 130.46875 244.046875 176.382812 222.269531 C 222.292969 200.488281 241.839844 145.65625 220.058594 99.746094 C 198.277344 53.832031 143.449219 34.289062 97.535156 56.066406 Z M 168.496094 205.648438 C 131.765625 223.074219 87.902344 207.4375 70.480469 170.707031 C 53.054688 133.976562 68.691406 90.113281 105.421875 72.6875 C 142.152344 55.261719 186.015625 70.898438 203.4375 107.628906 C 220.863281 144.359375 205.226562 188.222656 168.496094 205.648438 Z M 168.496094 205.648438 " fill-opacity="1" fill-rule="nonzero"/></g></g></g><g clip-path="url(#6f1e0e9a38)"><g clip-path="url(#47a7b227ab)"><g transform="matrix(1, 0, 0, 1, 146, 176)"><g clip-path="url(#2b614c9972)"><g clip-path="url(#11cd389711)"><g clip-path="url(#fe02205644)"><path fill="#0c2647" d="M 0.046875 10.34375 L 21.765625 0.0429688 L 52.832031 65.53125 L 31.117188 75.835938 Z M 0.046875 10.34375 " fill-opacity="1" fill-rule="nonzero"/></g></g></g></g></g></g><g clip-path="url(#56ef2d9509)"><g clip-path="url(#267ba286e5)"><g transform="matrix(1, 0, 0, 1, 151, 181)"><g clip-path="url(#f31e243d98)"><g clip-path="url(#47ddda5b59)"><g clip-path="url(#5dfbf52137)"><path fill="#e22626" d="M 0.484375 7.734375 L 15.175781 0.765625 L 42.371094 58.09375 L 27.679688 65.0625 Z M 0.484375 7.734375 " fill-opacity="1" fill-rule="nonzero"/></g></g></g></g></g></g><g clip-path="url(#b3a3b93013)"><g clip-path="url(#ef22a816c5)"><g transform="matrix(1, 0, 0, 1, 74, 26)"><g clip-path="url(#40e4588195)"><g clip-path="url(#54d38bba60)"><g clip-path="url(#0aaa66d6f8)"><path fill="#0c2647" d="M 0.96875 11.082031 L 22.6875 0.78125 L 53.757812 66.269531 L 32.039062 76.574219 Z M 0.96875 11.082031 " fill-opacity="1" fill-rule="nonzero"/></g></g></g></g></g></g><g clip-path="url(#e9180a4c80)"><g clip-path="url(#9f2db47799)"><g transform="matrix(1, 0, 0, 1, 21, 150)"><g clip-path="url(#0dde1a112f)"><g clip-path="url(#1aaade99d6)"><g clip-path="url(#4512b1a66b)"><path fill="#0c2647" d="M 66.515625 0.304688 L 76.714844 22.070312 L 11.078125 52.824219 L 0.878906 31.058594 Z M 66.515625 0.304688 " fill-opacity="1" fill-rule="nonzero"/></g></g></g></g></g></g><g clip-path="url(#a74d9b8bc3)"><g clip-path="url(#18f4f2a558)"><g transform="matrix(1, 0, 0, 1, 80, 31)"><g clip-path="url(#8400577719)"><g clip-path="url(#bb608f1f43)"><g clip-path="url(#37c596b7b5)"><path fill="#e22626" d="M 0.382812 7.859375 L 15.074219 0.886719 L 42.269531 58.214844 L 27.578125 65.1875 Z M 0.382812 7.859375 " fill-opacity="1" fill-rule="nonzero"/></g></g></g></g></g></g><g clip-path="url(#84d6578c82)"><g clip-path="url(#f316481997)"><g transform="matrix(1, 0, 0, 1, 174, 78)"><g clip-path="url(#0dee39f756)"><g clip-path="url(#5bbf5237ee)"><g clip-path="url(#a0716b780d)"><path fill="#0c2647" d="M 66.140625 0.203125 L 76.339844 21.96875 L 10.699219 52.726562 L 0.5 30.960938 Z M 66.140625 0.203125 " fill-opacity="1" fill-rule="nonzero"/></g></g></g></g></g></g><g clip-path="url(#fb01750c8e)"><g clip-path="url(#51d2f34214)"><g transform="matrix(1, 0, 0, 1, 180, 83)"><g clip-path="url(#567f27f973)"><g clip-path="url(#fc9dc8e557)"><g clip-path="url(#61a8bb6ef5)"><path fill="#e22626" d="M 7.074219 42.265625 L 0.105469 27.574219 L 57.433594 0.378906 L 64.402344 15.070312 Z M 7.074219 42.265625 " fill-opacity="1" fill-rule="nonzero"/></g></g></g></g></g></g><g clip-path="url(#7cda2e1082)"><g clip-path="url(#07a1f1249f)"><g transform="matrix(1, 0, 0, 1, 27, 154)"><g clip-path="url(#0e187f0b25)"><g clip-path="url(#a46b4df987)"><g clip-path="url(#9c73189452)"><path fill="#e22626" d="M 7.636719 42.695312 L 0.667969 28.003906 L 57.996094 0.808594 L 64.964844 15.496094 Z M 7.636719 42.695312 " fill-opacity="1" fill-rule="nonzero"/></g></g></g></g></g></g></g></g><g clip-path="url(#55e289af11)"><g transform="matrix(1, 0, 0, 1, 21, 304)"><g clip-path="url(#067be72550)"><g clip-path="url(#497920f092)"><path fill="#0c2647" d="M 0.617188 0.101562 L 65.980469 0.101562 L 65.980469 150.746094 L 0.617188 150.746094 Z M 0.617188 0.101562 " fill-opacity="1" fill-rule="nonzero"/></g></g></g></g><g transform="matrix(1, 0, 0, 1, 120, 176)"><g clip-path="url(#c14265e3a2)"><g fill="#0c2647" fill-opacity="1"><g transform="translate(0.407545, 155.118314)"><g><path d="M 94.15625 -62.21875 C 108.570312 -57.570312 115.78125 -48.125 115.78125 -33.875 C 115.78125 -23.144531 111.296875 -14.816406 102.328125 -8.890625 C 93.359375 -2.960938 80.546875 0 63.890625 0 L 7.921875 0 L 7.921875 -120.09375 L 70.375 -120.09375 C 82.863281 -120.09375 92.472656 -117.171875 99.203125 -111.328125 C 105.929688 -105.484375 109.296875 -97.117188 109.296875 -86.234375 C 109.296875 -74.859375 104.25 -66.851562 94.15625 -62.21875 Z M 46.359375 -74.703125 L 64.859375 -74.703125 C 70.773438 -74.703125 73.734375 -77.101562 73.734375 -81.90625 C 73.734375 -86.550781 70.773438 -89.273438 64.859375 -90.078125 L 46.359375 -90.078125 Z M 67.25 -30.03125 C 74.300781 -30.03125 77.828125 -32.832031 77.828125 -38.4375 C 77.828125 -44.195312 74.300781 -47.078125 67.25 -47.078125 L 46.359375 -47.078125 L 46.359375 -30.03125 Z M 67.25 -30.03125 "/></g></g></g></g></g><g transform="matrix(1, 0, 0, 1, 125, 187)"><g clip-path="url(#563789c6cf)"><g fill="#d6ecfa" fill-opacity="1"><g transform="translate(0.836432, 144.062049)"><g><path d="M 86.828125 -57.375 C 100.117188 -53.09375 106.765625 -44.378906 106.765625 -31.234375 C 106.765625 -21.335938 102.628906 -13.65625 94.359375 -8.1875 C 86.097656 -2.726562 74.285156 0 58.921875 0 L 7.3125 0 L 7.3125 -110.765625 L 64.90625 -110.765625 C 76.425781 -110.765625 85.285156 -108.066406 91.484375 -102.671875 C 97.691406 -97.285156 100.796875 -89.570312 100.796875 -79.53125 C 100.796875 -69.039062 96.140625 -61.65625 86.828125 -57.375 Z M 42.75 -68.890625 L 59.8125 -68.890625 C 65.269531 -68.890625 68 -71.101562 68 -75.53125 C 68 -79.820312 65.269531 -82.332031 59.8125 -83.0625 L 42.75 -83.0625 Z M 62.03125 -27.6875 C 68.519531 -27.6875 71.765625 -30.269531 71.765625 -35.4375 C 71.765625 -40.757812 68.519531 -43.421875 62.03125 -43.421875 L 42.75 -43.421875 L 42.75 -27.6875 Z M 62.03125 -27.6875 "/></g></g></g><g fill="#d6ecfa" fill-opacity="1"><g transform="translate(121.294352, 144.062049)"><g><path d="M 103.671875 -110.765625 L 103.671875 0 L 67.5625 0 L 67.5625 -39.875 L 43.203125 -39.875 L 43.203125 0 L 7.3125 0 L 7.3125 -110.765625 L 43.203125 -110.765625 L 43.203125 -70.890625 L 67.5625 -70.890625 L 67.5625 -110.765625 Z M 103.671875 -110.765625 "/></g></g></g></g></g></svg>