<?xml version="1.0" encoding="UTF-8" standalone="no"?>
<svg
   width="500"
   zoomAndPan="magnify"
   viewBox="0 0 375 374.99999"
   height="500"
   preserveAspectRatio="xMidYMid"
   version="1.0"
   id="svg144"
   xmlns="http://www.w3.org/2000/svg"
   xmlns:svg="http://www.w3.org/2000/svg">
  <defs
     id="defs52">
    <clipPath
       id="a71b0aee22">
      <path
         d="M 97,97 H 286 V 287 H 97 Z m 0,0"
         clip-rule="nonzero"
         id="path14" />
    </clipPath>
    <clipPath
       id="03c084c501">
      <path
         d="M 163.14453,61.800781 320.84375,163.28906 219.35156,320.98828 61.652344,219.5 Z m 0,0"
         clip-rule="nonzero"
         id="path15" />
    </clipPath>
    <clipPath
       id="ffabbedd08">
      <path
         d="M 163.14453,61.800781 320.84375,163.28906 219.35156,320.98828 61.652344,219.5 Z m 0,0"
         clip-rule="nonzero"
         id="path16" />
    </clipPath>
    <clipPath
       id="4688621be5">
      <path
         d="m 120,231 h 51 v 64 h -51 z m 0,0"
         clip-rule="nonzero"
         id="path21" />
    </clipPath>
    <clipPath
       id="9635c36a10">
      <path
         d="m 156.11719,231.28125 13.99218,9.00781 -35.16015,54.625 -13.98828,-9.0039 z m 0,0"
         clip-rule="nonzero"
         id="path22" />
    </clipPath>
    <clipPath
       id="946eaabbb4">
      <path
         d="m 0.761719,0.078125 h 49.4375 v 63.84375 h -49.4375 z m 0,0"
         clip-rule="nonzero"
         id="path23" />
    </clipPath>
    <clipPath
       id="5233e002cd">
      <path
         d="m 36.117188,0.28125 13.992187,9.007812 -35.160156,54.625 -13.988281,-9.003906 z m 0,0"
         clip-rule="nonzero"
         id="path24" />
    </clipPath>
    <clipPath
       id="ae2bf392ec">
      <rect
         x="0"
         width="51"
         y="0"
         height="64"
         id="rect24" />
    </clipPath>
    <clipPath
       id="b59304e2da">
      <path
         d="m 212,88 h 50 v 65 h -50 z m 0,0"
         clip-rule="nonzero"
         id="path33" />
    </clipPath>
    <clipPath
       id="d5c3e927c3">
      <path
         d="m 247.98437,88.53125 13.99219,9.003906 -35.15625,54.628904 -13.99219,-9.0039 z m 0,0"
         clip-rule="nonzero"
         id="path34" />
    </clipPath>
    <clipPath
       id="2e1bf788d8">
      <path
         d="M 0.679688,0.519531 H 50 V 64.359375 H 0.679688 Z m 0,0"
         clip-rule="nonzero"
         id="path35" />
    </clipPath>
    <clipPath
       id="89874b5dcd">
      <path
         d="M 35.984375,0.53125 49.976562,9.535156 14.820312,64.164062 0.828125,55.160156 Z m 0,0"
         clip-rule="nonzero"
         id="path36" />
    </clipPath>
    <clipPath
       id="03ebbb37ff">
      <rect
         x="0"
         width="50"
         y="0"
         height="65"
         id="rect36" />
    </clipPath>
    <clipPath
       id="dd4fcdd9ab">
      <path
         d="m 230,213 h 65 v 51 h -65 z m 0,0"
         clip-rule="nonzero"
         id="path41" />
    </clipPath>
    <clipPath
       id="2f659b229e">
      <path
         d="m 230.50781,227.9375 9.00391,-13.99219 54.6289,35.15625 -9.00781,13.99219 z m 0,0"
         clip-rule="nonzero"
         id="path42" />
    </clipPath>
    <clipPath
       id="decd56a255">
      <path
         d="M 0.441406,0.800781 H 64.28125 v 49.4375 H 0.441406 Z m 0,0"
         clip-rule="nonzero"
         id="path43" />
    </clipPath>
    <clipPath
       id="bdb0ae2977">
      <path
         d="M 0.507812,14.9375 9.511719,0.945312 64.140625,36.101562 55.132812,50.09375 Z m 0,0"
         clip-rule="nonzero"
         id="path44" />
    </clipPath>
    <clipPath
       id="d33dcb9912">
      <rect
         x="0"
         width="65"
         y="0"
         height="51"
         id="rect44" />
    </clipPath>
    <clipPath
       id="c2827078e8">
      <path
         d="m 86,120 h 64 v 50 H 86 Z m 0,0"
         clip-rule="nonzero"
         id="path45" />
    </clipPath>
    <clipPath
       id="39628e7393">
      <path
         d="m 86.089844,134.01953 9.003906,-13.99219 54.62891,35.15625 -9.00782,13.99219 z m 0,0"
         clip-rule="nonzero"
         id="path46" />
    </clipPath>
    <clipPath
       id="ef0f5350a8">
      <path
         d="M 0,0 H 63.800781 V 49.398438 H 0 Z m 0,0"
         clip-rule="nonzero"
         id="path47" />
    </clipPath>
    <clipPath
       id="9e7a5fba50">
      <path
         d="M 0.0898438,14.019531 9.09375,0.0273438 63.722656,35.183594 54.714844,49.175781 Z m 0,0"
         clip-rule="nonzero"
         id="path48" />
    </clipPath>
    <clipPath
       id="b65240c966">
      <rect
         x="0"
         width="64"
         y="0"
         height="50"
         id="rect48" />
    </clipPath>
    <clipPath
       id="da333eb0a5">
      <rect
         x="0"
         width="214"
         y="0"
         height="162"
         id="rect52" />
    </clipPath>
    <clipPath
       clipPathUnits="userSpaceOnUse"
       id="clipPath169">
      <path
         d="M 9.6914061,72.894531 H 375 V 372.89453 H 9.6914061 Z m 0,0"
         clip-rule="nonzero"
         id="path169"
         style="stroke-width:0.999997" />
    </clipPath>
    <clipPath
       clipPathUnits="userSpaceOnUse"
       id="clipPath262">
      <path
         d="m 301,239 h 74 v 62 h -74 z m 0,0"
         clip-rule="nonzero"
         id="path263"
         style="stroke-width:0.999997" />
    </clipPath>
    <mask
       maskUnits="userSpaceOnUse"
       id="mask-powermask-path-effect264">
      <path
         id="mask-powermask-path-effect264_box"
         style="fill:#ffffff;fill-opacity:1"
         d="M 96.211207,96.742457 H 286.49703 V 287.02828 H 96.211207 Z" />
      <path
         id="mask-powermask-path-effect257_box"
         style="fill:#ffffff;fill-opacity:1"
         d="M 96.211207,96.742457 H 286.49703 V 287.02828 H 96.211207 Z" />
      <path
         id="mask-powermask-path-effect250_box"
         style="fill:#ffffff;fill-opacity:1"
         d="M 96.211207,96.742457 H 286.49703 V 287.02828 H 96.211207 Z" />
      <path
         id="mask-powermask-path-effect243_box"
         style="fill:#ffffff;fill-opacity:1"
         d="M 96.211207,96.742457 H 286.49703 V 287.02828 H 96.211207 Z" />
      <path
         fill="#0c2647"
         d="m 377.07031,279.64062 -13.41015,20.6211 -62.1836,-40.44141 13.41016,-20.62109 z m 0,0"
         fill-opacity="1"
         fill-rule="nonzero"
         id="path264"
         clip-path="url(#clipPath262)"
         transform="translate(-77,-31)"
         style="" />
    </mask>
    <clipPath
       clipPathUnits="userSpaceOnUse"
       id="clipPath266">
      <path
         d="M 9.6914061,280.70703 H 65.398438 V 375 H 9.6914061 Z m 0,0"
         clip-rule="nonzero"
         id="path267"
         style="stroke-width:0.999997" />
    </clipPath>
    <mask
       maskUnits="userSpaceOnUse"
       id="mask-powermask-path-effect268">
      <path
         id="mask-powermask-path-effect268_box"
         style="fill:#ffffff;fill-opacity:1"
         d="M 8.6914061,71.894531 H 376 V 373.89453 H 8.6914061 Z" />
      <path
         fill="#0c2647"
         d="M 9.691406,280.70703 H 65.398438 V 391.46875 H 9.691406 Z m 0,0"
         fill-opacity="1"
         fill-rule="nonzero"
         id="path268"
         clip-path="url(#clipPath266)"
         style="fill:#000000;fill-opacity:1" />
    </mask>
  </defs>
  <g
     id="g269">
    <g
       id="g268">
      <path
         id="path54"
         clip-path="url(#clipPath169)"
         d="M 168.45703,72.921386 154.60107,88.195311 9.6914061,243.69873 23.976562,257.01123 V 372.87158 H 52.910156 V 239.76123 l 117.457034,-126.04248 31.38574,28.46631 a 104.34244,104.20986 0 0 1 25.8999,-15.57129 l -44.96484,-40.785646 -13.85157,-12.906738 -0.17578,0.1875 z m 104.93701,29.176754 v 16.57325 a 104.34244,104.20986 0 0 1 44.10937,12.36035 h 4.83985 v 2.77734 a 104.34244,104.20986 0 0 1 43.25097,52.19531 h 93.35889 V 157.0708 H 351.27685 v -54.97266 z"
         style="fill:#ffffff;fill-opacity:1;stroke:#ffffff;stroke-opacity:1"
         mask="url(#mask-powermask-path-effect268)" />
      <g
         clip-path="url(#a71b0aee22)"
         id="g73"
         transform="translate(77,31)"
         mask="url(#mask-powermask-path-effect264)">
        <g
           clip-path="url(#03c084c501)"
           id="g72">
          <g
             clip-path="url(#ffabbedd08)"
             id="g71">
            <path
               fill="#e22626"
               d="M 242.29297,112.73828 C 198.5625,84.59375 140.34766,97.21875 112.20703,140.94922 84.0625,184.67578 96.6875,242.89062 140.41797,271.03516 c 43.72656,28.14062 101.9414,15.51562 130.08594,-28.21094 28.14062,-43.73047 15.51562,-101.94531 -28.21094,-130.08594 z m -91.6875,142.46484 c -34.98438,-22.51171 -45.08594,-69.08203 -22.57031,-104.0664 22.51562,-34.98438 69.08593,-45.08594 104.07031,-22.57031 34.98437,22.51562 45.08203,69.08593 22.5664,104.07031 -22.51171,34.98047 -69.08203,45.08203 -104.0664,22.5664 z m 0,0"
               fill-opacity="1"
               fill-rule="nonzero"
               id="path70" />
          </g>
        </g>
      </g>
      <g
         clip-path="url(#4688621be5)"
         id="g85"
         transform="translate(77,31)">
        <g
           clip-path="url(#9635c36a10)"
           id="g84">
          <g
             transform="translate(120,231)"
             id="g83">
            <g
               clip-path="url(#ae2bf392ec)"
               id="g82">
              <g
                 clip-path="url(#946eaabbb4)"
                 id="g81">
                <g
                   clip-path="url(#5233e002cd)"
                   id="g80">
                  <path
                     fill="#e22626"
                     d="M 36.117188,0.28125 50.109375,9.289062 14.96875,63.890625 0.976562,54.886719 Z m 0,0"
                     fill-opacity="1"
                     fill-rule="nonzero"
                     id="path79" />
                </g>
              </g>
            </g>
          </g>
        </g>
      </g>
      <g
         clip-path="url(#b59304e2da)"
         id="g103"
         transform="translate(77,31)">
        <g
           clip-path="url(#d5c3e927c3)"
           id="g102">
          <g
             transform="translate(212,88)"
             id="g101">
            <g
               clip-path="url(#03ebbb37ff)"
               id="g100">
              <g
                 clip-path="url(#2e1bf788d8)"
                 id="g99">
                <g
                   clip-path="url(#89874b5dcd)"
                   id="g98">
                  <path
                     fill="#e22626"
                     d="M 35.984375,0.53125 49.976562,9.535156 14.835938,64.136719 0.847656,55.132812 Z m 0,0"
                     fill-opacity="1"
                     fill-rule="nonzero"
                     id="path97" />
                </g>
              </g>
            </g>
          </g>
        </g>
      </g>
      <g
         clip-path="url(#dd4fcdd9ab)"
         id="g115"
         transform="translate(77,31)">
        <g
           clip-path="url(#2f659b229e)"
           id="g114">
          <g
             transform="translate(230,213)"
             id="g113">
            <g
               clip-path="url(#d33dcb9912)"
               id="g112">
              <g
                 clip-path="url(#decd56a255)"
                 id="g111">
                <g
                   clip-path="url(#bdb0ae2977)"
                   id="g110">
                  <path
                     fill="#e22626"
                     d="M 0.507812,14.9375 9.511719,0.945312 64.113281,36.085938 55.109375,50.078125 Z m 0,0"
                     fill-opacity="1"
                     fill-rule="nonzero"
                     id="path109" />
                </g>
              </g>
            </g>
          </g>
        </g>
      </g>
      <g
         clip-path="url(#c2827078e8)"
         id="g121"
         transform="translate(77,31)">
        <g
           clip-path="url(#39628e7393)"
           id="g120">
          <g
             transform="translate(86,120)"
             id="g119">
            <g
               clip-path="url(#b65240c966)"
               id="g118">
              <g
                 clip-path="url(#ef0f5350a8)"
                 id="g117">
                <g
                   clip-path="url(#9e7a5fba50)"
                   id="g116">
                  <path
                     fill="#e22626"
                     d="M 0.0898438,14.019531 9.09375,0.0273438 63.695312,35.167969 54.691406,49.160156 Z m 0,0"
                     fill-opacity="1"
                     fill-rule="nonzero"
                     id="path115" />
                </g>
              </g>
            </g>
          </g>
        </g>
      </g>
      <g
         clip-path="url(#da333eb0a5)"
         id="g143"
         transform="translate(94,204)">
        <g
           fill="#d6ecfa"
           fill-opacity="1"
           id="g139">
          <g
             transform="translate(0.0971956,128.37233)"
             id="g138">
            <g
               id="g137">
              <path
                 d="m 74,-48.890625 c 11.332031,3.648437 17,11.070313 17,22.265625 0,8.4375 -3.527344,14.984375 -10.578125,19.640625 C 73.378906,-2.328125 63.3125,0 50.21875,0 H 6.234375 V -94.390625 H 55.3125 c 9.820312,0 17.375,2.296875 22.65625,6.890625 5.289062,4.59375 7.9375,11.167969 7.9375,19.71875 0,8.9375 -3.96875,15.234375 -11.90625,18.890625 z M 36.4375,-58.71875 h 14.53125 c 4.65625,0 6.984375,-1.882812 6.984375,-5.65625 0,-3.65625 -2.328125,-5.796875 -6.984375,-6.421875 H 36.4375 Z m 16.421875,35.125 c 5.539063,0 8.3125,-2.203125 8.3125,-6.609375 0,-4.53125 -2.773437,-6.796875 -8.3125,-6.796875 H 36.4375 v 13.40625 z m 0,0"
                 id="path136" />
            </g>
          </g>
        </g>
        <g
           fill="#d6ecfa"
           fill-opacity="1"
           id="g142">
          <g
             transform="translate(102.7599,128.37233)"
             id="g141">
            <g
               id="g140">
              <path
                 d="M 88.359375,-94.390625 V 0 H 57.578125 V -33.984375 H 36.8125 V 0 H 6.234375 V -94.390625 H 36.8125 v 33.96875 h 20.765625 v -33.96875 z m 0,0"
                 id="path139" />
            </g>
          </g>
        </g>
      </g>
    </g>
  </g>
</svg>
